<svg id="Lager_1" data-name="Lager 1" xmlns="http://www.w3.org/2000/svg" viewBox="0 0 225 71.93"><defs><style>.cls-1{fill:#1d1d1b;}.cls-2{fill:#439f35;}.cls-3{fill:#76b057;}.cls-4{fill:none;}.cls-5{fill:#fff;}</style></defs><title>Dina</title><path class="cls-1" d="M345.33,276.68c0-1.4-.32-1.73-2-1.84V274h7c4.56,0,7.67,3.56,7.67,9.29s-3.11,9.29-7.67,9.29h-7v-0.86c1.67-.11,2-0.43,2-1.84V276.68ZM348,289.85c0,1.3.59,1.84,2.19,1.84,3,0,4.81-1.89,4.81-8.42s-1.84-8.42-4.81-8.42c-1.59,0-2.19.54-2.19,1.84v13.18Z" transform="translate(-256.28 -261.56)"/><path class="cls-1" d="M360.43,292.55v-0.86c1.3-.05,1.73-0.54,1.73-1.35v-8.59c0-1.16-.32-1.35-1.73-1.4v-0.86l4.05-.16v11c0,0.81.43,1.3,1.73,1.35v0.86h-5.78Zm4.05-17.12a1.41,1.41,0,1,1-1.38-1.73A1.51,1.51,0,0,1,364.48,275.43Z" transform="translate(-256.28 -261.56)"/><path class="cls-1" d="M367.8,292.55v-0.86c1.3-.05,1.73-0.54,1.73-1.35v-8.42c0-1.16-.32-1.35-1.78-1.4v-0.86l3.94-.16v2.59h0.05c0.73-1.51,1.78-2.75,3.62-2.75,2.24,0,3.29,1.46,3.29,3.83v7.18c0,0.92.38,1.3,1.67,1.35v0.86h-4v-9.61c0-1.78-.67-2.38-1.59-2.38-1.43,0-2.89,1.89-2.89,4.54v5.24c0,0.81.43,1.3,1.73,1.35v0.86H367.8Z" transform="translate(-256.28 -261.56)"/><path class="cls-1" d="M393,288.83c0,2.83-.57,4-2.24,4a2,2,0,0,1-2.19-2.11h-0.05a3.39,3.39,0,0,1-3.35,2.11,3,3,0,0,1-3.29-3.05c0-3.08,4.27-4.35,6.59-5.21V282.4c0-1.54-.7-2.21-2.13-2.21a2.83,2.83,0,0,0-2.29,1,1.28,1.28,0,0,1,1.13,1.51,1.4,1.4,0,0,1-1.35,1.57,1.36,1.36,0,0,1-1.3-1.62c0-1.84,1.73-3.29,4.08-3.29,3,0,4.19,1.38,4.19,3.4v7.51c0,0.78.19,1.13,0.57,1.13s0.73-.59.78-2.54H393Zm-4.54-3.19c-2.16.76-4.1,1.78-4.1,4.08,0,1.43.65,2.13,1.49,2.13,1.38,0,2.62-1.62,2.62-4.67v-1.54Z" transform="translate(-256.28 -261.56)"/><path class="cls-1" d="M343.34,319.55v-0.86c1.67-.11,2-0.43,2-1.84V303.68c0-1.4-.32-1.73-2-1.84V301h12.72V308h-0.86c-0.41-3.54-1.51-6-4.67-6-2,0-2.54.43-2.54,1.67v5.62h0.76c1.67,0,2.38-1.08,2.75-3.4h0.86v7.83h-0.86c-0.38-2.32-1.08-3.4-2.75-3.4H348v6.53c0,1.4.32,1.73,2.48,1.84v0.86h-7.13Z" transform="translate(-256.28 -261.56)"/><path class="cls-1" d="M363.07,306.32c2.54,0,5.08,2.7,5.08,6.78s-2.54,6.78-5.08,6.78-5.08-2.7-5.08-6.78S360.53,306.32,363.07,306.32Zm-2.29-3.94a1.24,1.24,0,1,1-1.24,1.24A1.21,1.21,0,0,1,360.78,302.38ZM363.07,319c1.51,0,2.59-1.24,2.59-5.91s-1.08-5.91-2.59-5.91-2.59,1.24-2.59,5.91S361.56,319,363.07,319Zm2.35-16.63a1.24,1.24,0,1,1-1.24,1.24A1.21,1.21,0,0,1,365.42,302.38Z" transform="translate(-256.28 -261.56)"/><path class="cls-1" d="M370.36,319.55v-0.86c1.13-.05,1.57-0.54,1.57-1.35V310c0-1.84-.32-2.43-1.67-2.48v-0.86l3.73-.16v3.13H374c0.35-1.4,1.32-3.29,2.94-3.29a2.11,2.11,0,0,1,2,2.35c0,1.16-.57,1.75-1.27,1.75s-1.21-.38-1.21-1.59a1.21,1.21,0,0,1,1.16-1.32,0.8,0.8,0,0,0-.7-0.32c-1.84,0-2.67,4-2.67,6.32v3.83c0,0.81.43,1.3,2.27,1.35v0.86h-6.16Z" transform="translate(-256.28 -261.56)"/><path class="cls-1" d="M380.57,319.55v-4.86h0.86c0.27,1.7,1.16,4.32,3.35,4.32a2.2,2.2,0,0,0,2.38-2.35c0-3.48-6.48-1.94-6.48-6.7a3.57,3.57,0,0,1,3.59-3.64c1.48,0,2.08.81,2.56,0.81a0.62,0.62,0,0,0,.43-0.49h0.86v4.27h-0.86c-0.3-1.51-1-3.73-2.89-3.73a1.85,1.85,0,0,0-2,1.94c0,3.24,6.7,1.78,6.7,6.75a4.07,4.07,0,0,1-4.19,4c-1.81,0-2.35-1-3-1a0.71,0.71,0,0,0-.49.65h-0.86Z" transform="translate(-256.28 -261.56)"/><path class="cls-1" d="M402.06,315.83c0,2.83-.57,4-2.24,4a2,2,0,0,1-2.19-2.11h-0.05a3.39,3.39,0,0,1-3.35,2.11,3,3,0,0,1-3.29-3.05c0-3.08,4.27-4.35,6.59-5.21V309.4c0-1.54-.7-2.21-2.13-2.21a2.83,2.83,0,0,0-2.29,1,1.28,1.28,0,0,1,1.13,1.51,1.4,1.4,0,0,1-1.35,1.57,1.36,1.36,0,0,1-1.3-1.62c0-1.84,1.73-3.29,4.08-3.29,3,0,4.19,1.38,4.19,3.4v7.51c0,0.78.19,1.13,0.57,1.13s0.73-.59.78-2.54h0.86Zm-8.5-13.45a1.24,1.24,0,1,1-1.24,1.24A1.21,1.21,0,0,1,393.56,302.38Zm4,10.26c-2.16.76-4.1,1.78-4.1,4.08,0,1.43.65,2.13,1.49,2.13,1.38,0,2.62-1.62,2.62-4.67v-1.54Zm0.68-10.26a1.24,1.24,0,1,1-1.24,1.24A1.21,1.21,0,0,1,398.2,302.38Z" transform="translate(-256.28 -261.56)"/><path class="cls-1" d="M403.14,319.55v-0.86c1.3-.05,1.73-0.54,1.73-1.35V303.24c0-1.16-.32-1.35-1.73-1.4V301l4-.16v12.31h0.05l3.24-3.54a2.8,2.8,0,0,0,.92-1.49c0-.43-0.32-0.59-1.51-0.59v-0.86H415v0.86a3.38,3.38,0,0,0-2.27,1.16l-2.62,2.86,3.51,6.24c0.43,0.78.57,0.86,1.7,0.92v0.86h-3.4l-3.46-6.21-1.24,1.35v2.65c0,0.81.43,1.3,1.73,1.35v0.86h-5.78Z" transform="translate(-256.28 -261.56)"/><path class="cls-1" d="M416.5,319.55v-0.86c1.13-.05,1.57-0.54,1.57-1.35V310c0-1.84-.32-2.43-1.67-2.48v-0.86l3.73-.16v3.13h0.05c0.35-1.4,1.32-3.29,2.94-3.29a2.11,2.11,0,0,1,2,2.35c0,1.16-.57,1.75-1.27,1.75s-1.21-.38-1.21-1.59a1.21,1.21,0,0,1,1.16-1.32,0.8,0.8,0,0,0-.7-0.32c-1.84,0-2.67,4-2.67,6.32v3.83c0,0.81.43,1.3,2.27,1.35v0.86H416.5Z" transform="translate(-256.28 -261.56)"/><path class="cls-1" d="M426.66,319.55v-0.86c1.3-.05,1.73-0.54,1.73-1.35v-8.59c0-1.16-.32-1.35-1.73-1.4v-0.86l4-.16v11c0,0.81.43,1.3,1.73,1.35v0.86h-5.78Zm4-17.12a1.41,1.41,0,1,1-1.38-1.73A1.51,1.51,0,0,1,430.71,302.43Z" transform="translate(-256.28 -261.56)"/><path class="cls-1" d="M434,319.55v-0.86c1.3-.05,1.73-0.54,1.73-1.35v-8.42c0-1.16-.32-1.35-1.78-1.4v-0.86l3.94-.16v2.59H438c0.73-1.51,1.78-2.75,3.62-2.75,2.24,0,3.29,1.46,3.29,3.83v7.18c0,0.92.38,1.3,1.67,1.35v0.86h-4v-9.61c0-1.78-.67-2.38-1.59-2.38-1.43,0-2.89,1.89-2.89,4.54v5.24c0,0.81.43,1.3,1.73,1.35v0.86H434Z" transform="translate(-256.28 -261.56)"/><path class="cls-1" d="M450.77,318.09c-0.73-.11-2-0.73-2-1.86,0-1,.89-1.62,1.78-2.19a4.07,4.07,0,0,1-1.84-3.56,4.16,4.16,0,0,1,4.48-4.16,5.06,5.06,0,0,1,1.94.38,1.88,1.88,0,0,1,2-1.84,1.42,1.42,0,0,1,1.49,1.32,1.11,1.11,0,0,1-1,1.32,0.9,0.9,0,0,1-1-.95,3.1,3.1,0,0,1,.16-0.67c-0.46,0-.73.46-0.81,1.24a4,4,0,0,1,1.51,3.32,4.22,4.22,0,0,1-4.51,4.4,4.52,4.52,0,0,1-1.59-.32,1.1,1.1,0,0,0-.76.92c0,2.05,8.1-.65,8.1,4.83,0,2.3-2.16,4.19-5.45,4.19S448,322.68,448,320.9c0-1.54,1.49-2.43,2.75-2.75v-0.05Zm2.43,5.51c2.32,0,3.67-1.3,3.67-2.67s-1.3-2.24-3.67-2.24c-2.78,0-3.35,1-3.35,2.29C449.85,322.47,451.36,323.6,453.2,323.6ZM453.09,314c1,0,1.89-.65,1.89-3.4s-0.86-3.4-1.89-3.4-1.89.65-1.89,3.4S452.06,314,453.09,314Z" transform="translate(-256.28 -261.56)"/><path class="cls-1" d="M471.29,315.83c0,2.83-.57,4-2.24,4a2,2,0,0,1-2.19-2.11H466.8a3.39,3.39,0,0,1-3.35,2.11,3,3,0,0,1-3.29-3.05c0-3.08,4.27-4.35,6.59-5.21V309.4c0-1.54-.7-2.21-2.13-2.21a2.83,2.83,0,0,0-2.29,1,1.28,1.28,0,0,1,1.13,1.51,1.4,1.4,0,0,1-1.35,1.57,1.36,1.36,0,0,1-1.3-1.62c0-1.84,1.73-3.29,4.08-3.29,3,0,4.18,1.38,4.18,3.4v7.51c0,0.78.19,1.13,0.57,1.13s0.73-.59.78-2.54h0.86Zm-4.54-3.19c-2.16.76-4.1,1.78-4.1,4.08,0,1.43.65,2.13,1.49,2.13,1.38,0,2.62-1.62,2.62-4.67v-1.54Z" transform="translate(-256.28 -261.56)"/><path class="cls-1" d="M472.69,319.55v-0.86c1.13-.05,1.57-0.54,1.57-1.35V310c0-1.84-.32-2.43-1.67-2.48v-0.86l3.73-.16v3.13h0.05c0.35-1.4,1.32-3.29,2.94-3.29a2.11,2.11,0,0,1,2,2.35c0,1.16-.57,1.75-1.27,1.75s-1.21-.38-1.21-1.59a1.21,1.21,0,0,1,1.16-1.32,0.8,0.8,0,0,0-.7-0.32c-1.84,0-2.67,4-2.67,6.32v3.83c0,0.81.43,1.3,2.27,1.35v0.86h-6.16Z" transform="translate(-256.28 -261.56)"/><circle class="cls-2" cx="292.25" cy="297.53" r="35.96" transform="translate(-291.84 -221.86) rotate(-7.33)"/><path class="cls-3" d="M271,318.47a12.05,12.05,0,0,1-3.26-.08,0.45,0.45,0,0,1,0-.83c0.43,0.07.66-.4,1.11-0.26a2.51,2.51,0,0,0,.07-1.51c-1.59,0-3.05-.63-4.59-0.77-1.21-.92-2.74-1-4.13-1.18a35.75,35.75,0,0,0,3.07,5,1.36,1.36,0,0,1,.85.33c-0.11.18,0.6,0.71,0,.83q0.53,0.67,1.1,1.31l0.28,0a0.67,0.67,0,0,1,.27.56c0.63,0.68,1.28,1.35,2,2a4,4,0,0,0,1.28-.69c0.36-.25.31,0.26,0.58,0.36a0.43,0.43,0,0,0-.07-0.65c-0.49,0-.56-0.29-0.58-0.7a1,1,0,0,1,1.07-.41,0.27,0.27,0,0,0,.21.2l-0.1-.06a3.46,3.46,0,0,0,1.31-.8C271.29,320.32,271.74,319.05,271,318.47Z" transform="translate(-256.28 -261.56)"/><path class="cls-3" d="M271.66,316.91a1.13,1.13,0,0,0-1.07-.67,0.63,0.63,0,0,0-.35,1,1.06,1.06,0,0,0,1.08.33A0.7,0.7,0,0,0,271.66,316.91Z" transform="translate(-256.28 -261.56)"/><path class="cls-3" d="M275.5,316.94a3.7,3.7,0,0,1-2-2.12,3.57,3.57,0,0,0-2-.94l-0.05-.24c-1.62.54-2.78-.52-4.35-0.49a2.68,2.68,0,0,0-1.94-1.21l-0.2-.12a2,2,0,0,0-.29,2c1.42,0.75,3.16.35,4.6,1.18,1.14-.1,2.92.41,3.47,1.36a8.37,8.37,0,0,1,0,1.59,5.88,5.88,0,0,1,2.31.63l0.47-.11a2.84,2.84,0,0,1,.25-0.72Z" transform="translate(-256.28 -261.56)"/><path class="cls-3" d="M260.77,312.6l0,0.08c0.72,0.25,1.85.82,2.52,0.08a0.74,0.74,0,0,0,0-.9c-0.64-.6-2-0.55-2.83-1.09a1,1,0,0,0-.41,1.09A1,1,0,0,0,260.77,312.6Z" transform="translate(-256.28 -261.56)"/><path class="cls-3" d="M260.64,303.4c0.21,0.53,0,1.24.56,1.7a1.12,1.12,0,0,0,.89-0.46,1.71,1.71,0,0,0,.13-0.86C261.71,303.32,261.29,303.67,260.64,303.4Z" transform="translate(-256.28 -261.56)"/><path class="cls-3" d="M321.8,283c0.52,0.46.07,1.73,1,1.69a1.37,1.37,0,0,0,1.49.32c0.53-.21.23-0.8,0.55-1.21a1.06,1.06,0,0,0,.39-0.63c-0.31-.72-0.64-1.43-1-2.13h-0.1l0-.23a35.58,35.58,0,0,0-1.82-3.07,1.87,1.87,0,0,1-1.27-.39,2,2,0,0,0-.52,1.37c0.7,0.5,2,.53,2.33,1.46,0,0.51-.53,1-0.32,1.49C321.91,281.61,322,282.6,321.8,283Z" transform="translate(-256.28 -261.56)"/><path class="cls-3" d="M258.25,300.21c-0.68-.34-1.32-0.36-1.9-0.64,0,0.84.12,1.69,0.23,2.54a36.31,36.31,0,0,0,.76,4,1.62,1.62,0,0,1,.63-0.3,2.24,2.24,0,0,1,1.28.69,0.2,0.2,0,0,0-.13,0c0,0.25-.4.42-0.11,0.61-0.53.4-.89,0.07-1.38,0.14,0.23,0.83.49,1.64,0.78,2.44a1,1,0,0,1,1.19-.05c0.33,0.34.59,0,.92,0-0.14-1-.54-1.62-0.66-2.51a1.53,1.53,0,0,1,1,.84c0.83,0,1.88.23,2.52-.25,0.65-.07.66,0.68,1.21,0.55a0.61,0.61,0,0,0,.64.27,0.43,0.43,0,0,1,.24-0.39l0.24-.05c-0.49-1.39.73-2.25,0.85-3.52-0.59,0-.94-0.45-1.71-0.19-1.23-.3-1.83,1.09-2.73,1.88a2.46,2.46,0,0,1-2.14-1c0-.08.16,0,0.24-0.06a1.27,1.27,0,0,1-.67-1.09c0.22-.47.18-1,0.38-1.59C259.58,301.32,259.42,300.61,258.25,300.21Zm1,6.37a1.08,1.08,0,0,1,.2.42A0.26,0.26,0,0,1,259.28,306.58Z" transform="translate(-256.28 -261.56)"/><path class="cls-3" d="M262.57,308.86l0-.26a4.81,4.81,0,0,0-1,.39,4.57,4.57,0,0,0,.09,1.48,12.86,12.86,0,0,0,3.31.65,2.19,2.19,0,0,0,1.47.24,1.46,1.46,0,0,0-.38-1.66C265,308.88,263.57,310,262.57,308.86Z" transform="translate(-256.28 -261.56)"/><path class="cls-3" d="M274.56,308.92a1,1,0,0,0,.52-0.62c-0.25-.36-1.2-0.14-1,0.4A0.36,0.36,0,0,0,274.56,308.92Z" transform="translate(-256.28 -261.56)"/><path class="cls-3" d="M294.2,325.18a1,1,0,0,0,.86-0.95,1.49,1.49,0,0,0-1-.94,1.57,1.57,0,0,0-1.11,1.34C292.86,325.49,293.65,325.31,294.2,325.18Z" transform="translate(-256.28 -261.56)"/><path class="cls-3" d="M291.57,333.48c0-1.32,1.75-.33,2.41,0l0.71,0h0a2.42,2.42,0,0,1,.92-0.07c0.41,0,.82-0.07,1.23-0.13,1.11-.14,2.19-0.34,3.26-0.58a0.57,0.57,0,0,1,.45-0.1A36,36,0,0,0,327,306.68a7.58,7.58,0,0,0-1,1.1c-0.5.37-.74-0.33-0.91-0.7a1.88,1.88,0,0,1,1.34-1.06c0.07-.43.77-0.26,0.5-0.7a3.48,3.48,0,0,0,.59-1,35.82,35.82,0,0,0,.58-9,5.34,5.34,0,0,1-.57.65c-0.12.19-.5,0.37-0.57,0a5.16,5.16,0,0,1,1-1.63c-0.35-.08-0.42.35-0.91,0.38-1,.39-0.09,1.43-1,2.07a0.85,0.85,0,0,1-1,.24,0.91,0.91,0,0,1,0-1.08c0.33-.74,1.35-0.64,1.48-1.51-1.2.19-.29-1.26-0.56-1.7a1,1,0,0,1,1.28-.21,1,1,0,0,0,.66-0.08q-0.13-.93-0.31-1.85c-0.55.48-1.21,1.3-1.66,0.23-0.15-.3-0.38-0.91.1-1a0.36,0.36,0,0,1,.41.32,3.55,3.55,0,0,0,1-.22c-0.08-.38-0.16-0.75-0.26-1.13l-0.08-.06a0.6,0.6,0,0,1-.1-0.64,35.76,35.76,0,0,0-1.16-3.57c-0.92.24-1,1.51-1.35,2.32-0.14.11-.34,0.33-0.55,0.13s-0.25-1.11-.85-0.8c-0.39-.24-1.26,0-1.4-0.67l-0.79-.57c-0.82.77-.75,2.17-1.91,2.52-0.21.88-.92,1.79-0.83,2.52,0.15,0.3.69-.24,0.72,0.25l0.41,0.32c-0.14.11,0,.08,0.05,0.24,0,0.57-.71,1.25,0,1.75l1.15,0.32c0,0.59-.8.85-0.75,1.42-0.85.28-.56,1.54-1.28,2-0.52.29-1.32,0.39-1.59,1-1.11.26-.32,1.49-1.35,1.73-1.27-.79-1.91,2.52-2.83.73-0.51,0-.2-0.87-0.35-1.17a1.8,1.8,0,0,1,1.21-.53,0.43,0.43,0,0,0,.39.24,0.94,0.94,0,0,0,.63-0.89,3.83,3.83,0,0,1,1.53-.94c0.79-1.26,3-2.28,1.92-3.94l-0.27-.1c-0.8.52-1.38,1.57-2.35,1.37-0.53-.13-0.4-0.66-0.24-1,1.26-1.37,1.18-3.18,2.42-4.64a5,5,0,0,1,1.2-3.1l0.69-.24c-0.18-.79.5-1.44,0.75-2.17-0.38-.91.44-1.68,0.15-2.61-0.83-.72-2.42-0.77-2.3-2,0.44-.6,1.24,0,1.73-0.07a1.27,1.27,0,0,0,.24-0.39c-0.43-.07-0.11-0.47-0.08-0.73a1,1,0,0,1,1-.32,1.49,1.49,0,0,0,.82.34,36.1,36.1,0,0,0-9.25-9.14h0a0.91,0.91,0,0,1-1,.81c-0.22.13-.52-0.46-0.67-0.76l-0.22.13a1.23,1.23,0,0,1-.72-0.58c-0.12-.5.57-0.51,0.68-0.82a36,36,0,0,0-5.37-2.62,2,2,0,0,1-1.39.52,0.63,0.63,0,0,1-.5-0.72c-0.69.24-1-.1-1.71,0.15-1.09.33-.66,1.82-1.28,2.37a0.27,0.27,0,0,0-.36.25l-0.76-.41a4.7,4.7,0,0,0,.38-1.25,1.76,1.76,0,0,0-.65-1c0.55-1.45,2.16-.81,3.45-0.85a35.73,35.73,0,0,0-11.3-1.44,0.68,0.68,0,0,1-.12.22,1.59,1.59,0,0,1-1.31-.14c-0.66,0-1.33.11-2,.2a36,36,0,0,0-9.77,2.7l0.16,0c0.21,0.2.35,0.42,0.64,0.27,0.17,0.38-.13.53-0.33,0.74-0.84-.39-0.5.7-1.27,0.63-0.22.13,0,.25,0.07,0.32l-0.46.52c-0.78-.49-0.35.66-1,0.55-0.57,1.13-2.2,2-1.85,3.51-0.32,1.15,0,2.34-.3,3.4,0.25,0,.19.46,0.07,0.65a1.55,1.55,0,0,1-1,.4c-0.81-.64.29-1.65-0.19-2.62-0.19-.46-0.88-0.21-1.07-0.67a0.7,0.7,0,0,0-.13.53c-0.69,1-.78,1.68-1.4,2.57l0.22,2,0.37,0.16c0.34,0.75,1.28.87,1.86,1.23,0.84,0.39-.24,1.14.35,1.5,0,0.33,0,.67-0.5.7a1.05,1.05,0,0,1-.91-0.7,0.61,0.61,0,0,0,.08-0.35c-1.27-.46-1.61-2-2.19-3-0.77-.82-0.36-1.91.09-2.85,0-.83-0.79-1.65-0.25-2.52a0.54,0.54,0,0,1,.67-0.32c0.21,0.2.74,0.33,0.56,0.62,0.19,0.12.35,0.42,0.55,0.21l0-.16c0.61-.22,1.05.59,1.69,0.11a2.57,2.57,0,0,0,.48-2.61c0.52-.62.37-1.66,1.43-1.74l0,0.16c0.82,0.31.74-.75,1.43-1-0.38-.58.8-0.52,0.73-1.17,0.16-.37.46-0.19,0.79-0.18a0.61,0.61,0,0,1,.27-0.77,35.76,35.76,0,0,0-7.58,4.57,0.47,0.47,0,0,1,.18.26,0.93,0.93,0,0,1-.6.64,0.38,0.38,0,0,1-.34-0.27,36,36,0,0,0-3,2.8,5.61,5.61,0,0,0,.17.7,1,1,0,0,1,.38.91c0.36,0.5-.12,1.28.4,1.74-0.31.82,0.86,1.22,1.18,1.89-0.44.6,0.19,1.54-.14,2.28a6.61,6.61,0,0,1,.35,1.17c0.55,0.21,1.57.3,1.83,1.08-0.24.39,0.34,0.75,0.29,1.26-0.38.5,0.54,0.87,0.56,1.37-0.12.19,0.07,0.32,0.25,0.36l0.06-.1a1.12,1.12,0,0,1,.7.5c0.2,0.87,1.47,1.32,1.29,2.36l0.18,0c0.38-.17.62,0.52,0.89,0.63,0-.26.32-0.07,0.49,0a1.82,1.82,0,0,0,1.12-.18c1.1,0.08.53,0.87,1.27,1.54a7.11,7.11,0,0,1,2.24,1.06,21.18,21.18,0,0,0,4.7.91c1.41,0.34,2.57-.43,3.86-0.56,1.95-1.28,3.63-1.92,5.54-3,0.4-.43.69-1,0.95-1.3,0.26-1.06.36-2.41,1.22-3a7.81,7.81,0,0,0,1.27-2.79c0.84-1,.48-2.61,1.56-3.35a0.3,0.3,0,0,0-.27-0.44,2.22,2.22,0,0,1,.3-1.57,0.57,0.57,0,0,1,.87-0.2c0.44,0.48-.3.49,0,0.91-0.36.58,0.24,1,.24,1.77s-0.82.77-1.2,1.28a1.78,1.78,0,0,1-.24,1.47l0.05,0.24c-0.71,1.24-.86,2.78-1.94,3.86a1.69,1.69,0,0,1-.66,1.82,4.33,4.33,0,0,1-2,3c-0.8.85-2.24,0-2.78,1.31a1.31,1.31,0,0,1-1.69-.11c-1.82,1.5-4.17,2.46-6.77,1.31-1.2-.14-2.38.13-3.07-1-0.75,0-1.37.9-1.87,0.18,0.45-.94-0.78-0.15-1-0.69-0.76-.41-1.83-0.74-1.91-1.8a1.46,1.46,0,0,1-1,.06c-0.28-.85-1.74-0.68-2.23-1.73a0.71,0.71,0,0,0-1,.06,0.16,0.16,0,0,0,.13.22l0.08,0,0.35,2.25c0.08,0.73,1.17.39,1.28,1.2-0.27.64,0.33,1.09,0.36,1.91,1.42-.33,2.3,1,3.7.89a1,1,0,0,1,.13,1.3c-0.24.39-1,.24-1.56,0.44a4.42,4.42,0,0,0-2.62-1.64c-1.48.09-2.45-1.26-3.71-1.64a6.05,6.05,0,0,1-1.66-.7,1.63,1.63,0,0,0-1.1-.08c0,0.08.1,0.06,0.12,0.14l-1,.32c-0.57-.29-0.72.5-1.33,0.72-0.69-.84-0.84.69-1.67,0a0.5,0.5,0,0,1-.1-0.81c0.59-.3.52-1.7,1.48-1.51,0.15,0.63,1.31.61,1,1.26,0.24-.39.84-0.69,0.47-1.19a1.6,1.6,0,0,1,1.24-1.12,2.72,2.72,0,0,1,1.88,1.65l2,1.12c0.18,0,.55.21,0.59,0-0.39-1.33,0-2.32-1-3.42a1.53,1.53,0,0,1-1.16-.32c-0.17-.38-0.47-1,0.06-1.18a1.46,1.46,0,0,0-.82-0.31c-0.11-.47-0.68-0.43-1-0.69-0.47-.23-1.13-0.57-0.92-1.12a0.47,0.47,0,0,1,.67-0.32c-0.28.23,0.15,0.3,0.19,0.46,0.83-.36,1,0.77,1.77.84l0,0.16a2,2,0,0,0,1.91.72,2.2,2.2,0,0,0,.33-1.82c-0.27-.1-0.29-0.52-0.66-0.35l-0.36-.83a9.65,9.65,0,0,1-2.56-2.07c0-.91,0-2.08,0-3.07A10.91,10.91,0,0,1,265,274a35.9,35.9,0,0,0-8.72,21.86h0.17a2.51,2.51,0,0,1,1.45-1.66l0.1,0.06c-0.56.46-.55,1.21-1.11,1.67,0.73,0.66,1.46.58,2.5,1.09,0.33,1.09,1.51.4,2.16,1.41,0.1,1.14-.78,2-0.88,3,0.3,1.68,2.33,1.46,3.54,2a2,2,0,0,1,1.36.1c1.43,0.42,3.83,0,4.47,1.71a7,7,0,0,0,3,.8c1.17-.35,2.48,2.09,3.22.25l0.25-1.06c-0.67-1.09-2.49-.67-3.59-1.5a0.63,0.63,0,0,1-.82-0.31,0.39,0.39,0,0,1,.13-0.53c0.64,0.27,1.38-.15,2,0.12,1.18,0.81,2.67.38,3.65,1.4a1,1,0,0,1-.21.88,0.37,0.37,0,0,1,.11.47c1.43,1.5,3.86,1.6,5.45,1.65l0.6,0.44c-0.36.58-1.4,0.41-1.51,1-0.27-.1-0.3.15-0.52,0.29a1.66,1.66,0,0,0,.55.21,11.16,11.16,0,0,1,2.9.33,3.2,3.2,0,0,1,2.09-.31,4.3,4.3,0,0,1,2.21-.51c1.65-1.13,3.92-.32,5.44-2,0.18-.29.44-0.6,0.64-0.48l0-.16a1.84,1.84,0,0,0-1.31-.61c-3.39,1.53-6.65,1.12-10.41.66l-1.5-.74c-0.73.08-2.05,0.47-2.82-.35a0.48,0.48,0,0,1,.46-0.52c1.84,0.41,3.63.24,5.47,0.65,2.07-.06,4.43.81,6.32-0.38a17.68,17.68,0,0,0,9.85-5.27c0.64-.48.61-1.31,1.39-1.57a1.25,1.25,0,0,1,.45,1.23c-0.75,1.42-2.11,1.65-3.1,2.79a3.29,3.29,0,0,0-1.77,1.32c-1.17.35-2.64,1.19-2.7,2.7,1.94,0.13,3-1.62,4.68-2.08a4.57,4.57,0,0,1,2.17-1.75c0.33-2.16,2.62-1.27,3.3-3,0.32-.07.54-0.21,0.38-0.5,0.44-.6,1-1.14,1.29-1.63-0.64-.27-1.94-0.13-2-1.29,0.14-.12,0-0.26-0.15-0.3-0.95.22-1.63,1.21-2.53,1.66a1.08,1.08,0,0,1-.33-0.34c-0.53-.13-1.68.3-1.38-0.6a1,1,0,0,1,.88-0.87c0.92,0,1-1.22,1.72-1.56,1.76-.66,1.82-2.58,2.3-4.11a7.13,7.13,0,0,0,2.81-4.39c0.65-1.15,2.84-.66,2.88-1.91,0.55-1.21,1.31-2.63.74-3.66-0.31-.26-0.79.18-1.16,0l-0.21-.53c0,0.16-.22.13-0.18,0.29-0.32.07-.45-0.15-0.52-0.46a2.42,2.42,0,0,1,.71-1.25c0.69-.24,1.56.64,2.11-0.24,0.23-.47,1-0.32,1.21-0.53s0.7,0.17.67-.32a0.91,0.91,0,0,1,0-1.08l0.54-.54a0.39,0.39,0,0,0-.59.3c-0.07-.32-0.41,0-0.53-0.13l0,0.08c-0.69-.09-0.61-1.19-0.62-1.6a0.9,0.9,0,0,1,.8-0.52c0.46-.52-0.12-2,1.11-1.67a0.8,0.8,0,0,1,.45.89c-0.36.25-.45,0.94-1,1.06,0,0.51,1-.06,1.15.65,0.5,0.38-.12.94-0.12,1.28l-0.6.64a0.61,0.61,0,0,1,.18.79c-0.84.69,0.55,2-.7,2.74-1,.14-0.47,1.19-0.91,1.46,0.12,0.89-1.39,1.9-1.24,2.95a2.14,2.14,0,0,0-.43,2.1c-0.25.72-1,.9-1.27,1.71-0.49.78-.55,2-1.36,2.39a0.78,0.78,0,0,1-.56.8c-0.25,0-.06-0.24-0.09-0.39,0.28-.23-0.07-0.65.21-0.88-0.31-1.34,1.74-2.56,1.23-4-0.43-.4-0.75,0-1.09.33l0.1,0.06a6.83,6.83,0,0,1-2.35,3.87c0.09,1.48-1.05,2.65-1.89,3.68a0.88,0.88,0,0,0,0,.91c1.14,0.24,1.61-2,2.7-1.29-0.07.77-1.62,1.62-.91,2.54a1.46,1.46,0,0,0,1.31.28,15.18,15.18,0,0,1,1.83-2.17c0.14-.12.52-0.29,0.65-0.07,0.29,0.18,0,.41,0,0.67-0.71.16-.5,0.37-0.7,0.91-0.81,1.52-2.32,2.2-3.13,3.72l-0.24.06c0,0.92-1.2.94-1.85,1.34a6,6,0,0,1-1.84,1.76c-0.18,0-.23-0.28-0.45-0.15l-0.14.12,0.29,0.18c-0.92,2.13-3.2,3.07-5.24,4-1.1,1-2.91,1.09-3.81,2.21-2.38.13-3.66,1.43-5.9,1.11a1.68,1.68,0,0,1-1.46.5,11.25,11.25,0,0,0-1.63.13c-1.23-.3-2.6.27-3.72-0.64l0.05,0.24c-1.28-.12-2.82.4-3.72-0.64a1.5,1.5,0,0,0-1.34-.77c-1,.4-1.48,1.51-2.22,2.26-0.65.07-1.29-.53-1.91-0.72,0.49-.78-0.81-2.06.58-2.55,0.58-.72-0.45-0.89-1-1-0.55.13-.73,1.5-1.55,1.19a0.86,0.86,0,0,1-.18-1.12l0.39-.09c-0.45-.15-0.16-0.71-0.55-1-1,.14-2.52-0.83-2.87.16-0.45.19-.07,0.43-0.31,0.82a2.3,2.3,0,0,0,0,1.26c0.64,0.6,1-.57,1.69.11a2.24,2.24,0,0,0,1.29,1.28l0.05,0.24,2.28,0.89c0.13,0.22-.22.47-0.38,0.5a18.78,18.78,0,0,1-3.37-.89,1,1,0,0,0-1,.9c0.22,1.69,2.2.9,2.87,2a1.23,1.23,0,0,1,1.06-.08c-0.39-.24,0-0.59.25-0.72a2.56,2.56,0,0,1,1.54.56,0.25,0.25,0,0,0,.05.24c0.18,0,.1-0.27.1-0.27,0.59,0,.92-1,1.46-0.5,0.92,0,1.13-1.59,2.11-1.32a1.75,1.75,0,0,1,.93.78,3,3,0,0,1,1.23.3,2.12,2.12,0,0,1,1.59,0c0.19,0.46.67,0,.92,0.37,0.53-.21,1.18.06,1.44-0.25,0.36,0.5.82,0.31,0.71,0.92-0.88.87-2.08-.35-3-0.31l-0.11-.14a6,6,0,0,1-2.7.21l0-.16c-1.23.45-3.25-.75-3.77,1,0.5,0.72.74,1.41,1.16,2.14,1.31,0.61.73-2.25,2.32-1.12l-0.1.27c0.69,0.09,1.79-1.25,2.14-.08-0.39.84-1.28,1-1.91,1.44-0.27,1-1.6,1.37-1,2.3a4.57,4.57,0,0,0,3.84-.3c-0.51,0-.1-0.81.2-1l1.78-.58a4.8,4.8,0,0,0,2.1,1.18c0.38-.5,1.59.38,2-0.38a8.62,8.62,0,0,1,2.43-.64c1.32,0.69,1.7-.56,3-0.2,1.62-.54,3.34-0.69,4.53-1.63,0.87-.53,1.95-1.28,2.86-0.58-0.08,0-.06.1,0,0.18a9.3,9.3,0,0,1,2.07-1.14l0.38-.17-0.08,0a13.23,13.23,0,0,1,2.69-2l0.18-.29c0.71-.16,1.46-1.25,2.16-0.75a14.93,14.93,0,0,1-1.93,2.44c-0.85.28-1.6,0.29-2.22,1.18-0.86.61-1.5,1.43-2.42,1.39a2.45,2.45,0,0,1-1.64.46,7.38,7.38,0,0,1-3,1.52c-0.46-.56-1.28-0.12-1.75,0-1.71.15-2.94,1.34-4.8,1.19-1.7.23-2.53,0.92-4,.83-2.15-.67-3.89.81-6.21,0.85a9.14,9.14,0,0,0-2.66.36,1.05,1.05,0,0,1-.3-0.93,15.09,15.09,0,0,0-1.82-.33,2.4,2.4,0,0,0-2.05.47,3.07,3.07,0,0,1,.1.81,15,15,0,0,1,.73,1.74,39.27,39.27,0,0,0,8-.35,14.25,14.25,0,0,0,5.62.2c0.68,0.09,1.62-.54,2.08,0a0.51,0.51,0,0,1-.12.94c-1.07.75-2-.29-2.88,0.5a19.3,19.3,0,0,1-3.2-.18c-1,.06-2.1,1-2.63-0.23a0.39,0.39,0,0,1-.25-0.36c-0.64-.27-1.14.84-1.34,1.39,0.35,0.42-.35.66-0.16,1.12l0.24-.05a0.44,0.44,0,0,1-.29.57c-1.2.19-2.29,0.53-3.36-.14,0.18-1,1.53.15,2.08-.73a0.82,0.82,0,0,0,.08-1.1c-0.7-.5-1.2.19-1.85-0.07-0.8-.23-1.4.41-2.12-0.17-0.17-.38.41-0.76-0.08-1.06a0.5,0.5,0,0,0-.61.23c-0.35.66,0.95,0.86,0.13,1.63a0.71,0.71,0,0,1-.75.34c-0.51-.38-0.64-1.35-1.39-1.34A9.29,9.29,0,0,1,269,325c0.71,0.6,1.44,1.16,2.19,1.7a0.89,0.89,0,0,1,.18-0.15,2,2,0,0,1,1.74.35,0.73,0.73,0,0,1-.55.74,36.1,36.1,0,0,0,3.88,2.21l2.21,0.51a1.93,1.93,0,0,0,1.05-.49c0.18-1,.56-2.62,1.8-3,0.61,0.11,1.52-.6,2.33-0.37a0.3,0.3,0,0,0-.12.19,0.83,0.83,0,0,1,1.05.59c0.25,0.36,0,.92.55,1.29,1.35,0.44,2.84-.32,4.2.19a0.71,0.71,0,0,1,1.08.34,0.68,0.68,0,0,1-.8.52c-0.3-.6-0.5.36-0.87,0.2a2.14,2.14,0,0,1-1.84-.41c-0.73,1.17-2.43.64-3.49,0.39-0.25,0-.17-0.38-0.11-0.47a0.63,0.63,0,0,0,.24-0.39,2.27,2.27,0,0,0-.85-0.8c-0.48.44-1.06,0.08-1.45,0.58a2,2,0,0,0,.52.8c0,0.51-.7.58-0.83,1.1l-0.08,0c0.52,0.46.72,0.58,1.34,1.11a1.08,1.08,0,0,1-.3.3A35.69,35.69,0,0,0,291.57,333.48Zm35.69-33a0.88,0.88,0,0,1-.15.78,0.52,0.52,0,0,1-.9-0.29A0.75,0.75,0,0,1,327.26,300.5Zm-8.81-26.66c0.29,0.18.9,0,1,.43s-0.34.33-.54,0.54a0.78,0.78,0,0,1-.87-0.55A0.44,0.44,0,0,1,318.45,273.84Zm-22.41.93a1.93,1.93,0,0,1-1-.61,0.7,0.7,0,0,1,1.34-.31C296.31,274.13,296.71,274.78,296,274.77Zm-3.52-11.66c0,0.75.53,0.13,0.82,0.31,0.86,0.47.45,1.23,0.2,2-0.21.55,0.32,1-.18,1.37l0.37,0.16c0.39,0.24,0,.83-0.22,1.21a0.75,0.75,0,0,1-1,0,3.91,3.91,0,0,1-.18-2.2,4.7,4.7,0,0,1,.09-1.77,1.09,1.09,0,0,1-.81-1A1.6,1.6,0,0,1,292.52,263.11Zm-1.63,17.09c1.18-1-.33-2.17.65-3.31a1.58,1.58,0,0,1,.06-1.18c0-.92.32-1.49,0.28-2.39,0.11-.61-0.72-1.66.31-1.9a1.27,1.27,0,0,1,.72,1.33c0.29,0.52-.14,1.2.18,1.87a1.22,1.22,0,0,0-.11.61c-1.43,1,.21,2.36-0.66,3.64a2.47,2.47,0,0,1,.07,2.48,2.11,2.11,0,0,0-.89,1.54c-1.24,1.45-2.24,2.93-4,3.76-1,.39-2.07.4-3,0.87-1.25-.38-2.15-0.67-3.46-0.95,0.19-.63-0.61-0.11-0.58-0.7a0.79,0.79,0,0,1,.5-0.7,0.69,0.69,0,0,1,.84.39c1.17-.35,2.43.44,3.61,0.5a16.53,16.53,0,0,0,5.19-4.19,0.08,0.08,0,0,0-.1-0.06C290.19,281.11,291.45,280.82,290.89,280.2Zm-2.71-14.26c0.21,0.53,1.25.38,1,1.18a0.34,0.34,0,0,0,.51,0l0.19,0.46c-0.64.48,0.34,0.75-.1,1.35-0.65.07-.07,0.43-0.33,0.74l-0.56-.29a1.13,1.13,0,0,1,0-1.24l-0.19-.12c-0.19-.12.1-0.27,0.07-0.43-0.59,0-.42-0.74-0.91-1C287.8,266.44,287.77,266,288.18,265.94Zm-1.7-1.6c0.39,0.24.29,0.52-.05,0.84s-0.69-.09-0.92-0.37C285.4,264.33,286.11,264.17,286.48,264.33Zm-2.81,7.3a0.82,0.82,0,0,1-.71.91c-0.15-.3-0.93-0.45-0.81-1a0.88,0.88,0,0,1,.82-0.77A0.79,0.79,0,0,1,283.67,271.64Zm-1.33-3.6c-0.07.43,0.53,0.87-.06,1.18a1.2,1.2,0,0,1-1.25-.71C280.82,267.55,282,267.77,282.34,268Zm-2.84,2.82a0.62,0.62,0,0,1,.62.52l-0.3.15c0.08,0.73.81,1,.64,1.68a1.74,1.74,0,0,1-.63.15l-1-1.51A0.83,0.83,0,0,1,279.5,270.85ZM278.76,277c0-.18.16-0.37,0.38-0.17a1.06,1.06,0,0,1,.42.73,10.09,10.09,0,0,0,2.49.34c0.48-.11.58-0.72,1-0.65a0.63,0.63,0,0,1,.51-0.7c-0.38-.58.32-0.41,0.41-0.76-0.42-.74.55-0.87,0.79-1.26,0.41,0.32-.15.78,0.11,1.22-0.47.11-.41,0.76-0.69,1A6.9,6.9,0,0,1,283,278.6a2.71,2.71,0,0,1-2.58.35c-0.38-.58-1,0.32-1.43-0.42a0.89,0.89,0,0,1,0-1.24Zm2.1,4.76c0.64,1.35,2.52.83,3.61,1.24,0.46-.19.66-0.73,1.29-0.55,0.92-1,2.65-1.86,2.38-3.38-0.13-1.3,1.27-2.79.11-3.85-1.59,0-1.15,1.85-2.05,2.64-0.44,1.35-1,2.73-2.47,3-0.22-.95.69-1.32,1.14-2.26,0.64-.48.67-1.4,1.21-1.94-0.54-.54.46-1.27,0.62-2,0.64-1.56-2.06-1.36-1.18-3a1.07,1.07,0,0,1-.38-0.58,0.74,0.74,0,0,1,.64-0.81,0.86,0.86,0,0,1,.6.44c0,0.41.24,1-.14,1.2a1.24,1.24,0,0,1,.5.72c1.06-.08,1,1.28,2,1.29,1.33-.72-0.32-1.76.21-2.71,0.1-.27.75-0.34,0.66-0.73l0.16,0a0.75,0.75,0,0,1,.4.66,16.08,16.08,0,0,0,0,3.74c-0.78,2.76-.61,5.63-2.82,8a3.56,3.56,0,0,1-2.17.67,1.54,1.54,0,0,1-.94.63c-0.88-.21-2.1-0.1-2.68-0.8a2.52,2.52,0,0,1-2.12-1.26,1.58,1.58,0,0,0-1.41-.34,1,1,0,0,1-.85-0.8l0.19,0.12a0.86,0.86,0,0,0-.25-0.36,1.14,1.14,0,0,0,.26-0.31c0.25,0.36.67-.32,1,0.19C279.53,280.33,279.93,281.73,280.86,281.77Zm-5.25-10.52c0.12-.19.07-0.76,0.44-0.6,0.22-.13-0.05-0.24-0.09-0.4a2,2,0,0,1,1.24-1.12,0.34,0.34,0,0,1,.31.26c0.15,0.3-.3.49-0.5,0.36a0.39,0.39,0,0,1-.13.53l0.17,1.46-0.2.21c1,0.51.32,1.76,0.72,2.41s1,0.84.76,1.49c-0.53-.13-1-0.35-1.45-0.5,0.33,0.34-.35.66,0.14,1a0.42,0.42,0,0,1-.66.4,1.76,1.76,0,0,1-1-1.28,1.67,1.67,0,0,1,.51-1A8.92,8.92,0,0,0,275.6,271.25Zm-1.11,7.08c0.3-.49.54,0.54,0.75,0l0.23,0.28c-0.26.31,0.36,0.5,0.28,0.85a0.55,0.55,0,0,1-.56.46c-0.71.16-.56-0.62-0.91-1Zm3.44,7.36c-0.22.47-.65,0.07-1,0.47-0.91.38-.83-1.06-1.41-1.42a2.31,2.31,0,0,0-2-.21,0.66,0.66,0,0,1-.5-0.72c1-.57.33-1.82,1.38-2.31a1.12,1.12,0,0,1,1.11.83A1.71,1.71,0,0,1,277,284C277.31,284.42,278.34,284.93,277.93,285.69Zm18.59-6.29a5,5,0,0,0-1.14,1.18,1,1,0,0,1-.19.63c-0.05,1.93-1.23,3.69-1.91,5.43l-4.93,3.13-3.81.8a15.67,15.67,0,0,0-3.6-.83c-0.45-.15-0.67-0.76-1.23-0.63-0.52-.8-2-1-1.51-2.23,0-.75.7-0.58,1-0.32a1.64,1.64,0,0,1,.65,1,16.54,16.54,0,0,0,4.14,1.71l2.42-.31c2-1,4.66-2.16,6.36-4.13l-0.1-.06c0.26-.31.27-1,0.75-1.09-0.1-.06,0-0.16-0.13-0.22,1-.9.15-2.61,1.57-3.27-0.46-.56.57-0.8,0-1.26a3.29,3.29,0,0,0,.08-2.52c0-.67,0-1.34.93-1.38a0.6,0.6,0,0,1,.58.36,2.21,2.21,0,0,1-.49,1.11c-0.07.77,0.8,1.31,0,2C296.19,278.65,296.93,279,296.53,279.4Zm0.28-7.8a1,1,0,0,1-.93.3c-0.43-.07-0.29-0.52-0.5-0.72,0.1-.27.07-0.77,0.5-0.7L295.6,270c0-.33,0-0.75,0-1.16,0-.83.74-0.75,1.25-0.7,0,0.49.12,0.89-.49,1.11,0.09,0.39.27,0.1,0.39,0.24a1,1,0,0,1-.19,1C296.33,271,297.17,271,296.81,271.6Zm1-7.63a1,1,0,0,1-1,.39c-0.27-.1-0.28.23-0.32,0.41l0.27,0.1c-0.64.48,0.15,0.63,0.16,1a1.07,1.07,0,0,1-.63.89c-0.41,0-.87.2-1-0.35a0.62,0.62,0,0,1,.33-0.74c0.54-.54-0.08-1.06.13-1.61a0.61,0.61,0,0,1-.54-0.54,1.52,1.52,0,0,1,.65-1.15,1.89,1.89,0,0,1,1.07.67,0.68,0.68,0,0,0,.87.55C297.83,263.79,297.93,263.86,297.79,264Zm-34.27,14.4a4.51,4.51,0,0,1,.58-0.72c0.68,0.42-.33.74-0.31,1.15-0.22.13-.33,0-0.45-0.15Zm0.39,2.41a2.69,2.69,0,0,1,1.66,1.78c0.07,0.32-.18.29-0.32,0.41a0.43,0.43,0,0,1,.07.65,1.11,1.11,0,0,1-1.2.19,15.62,15.62,0,0,1-.82-2.47C263.7,281.32,263.4,280.72,263.91,280.77Zm-2.3-1.3c0.46-.19.65,0.27,0.88,0.55a0.52,0.52,0,0,1-.35.66,0.86,0.86,0,0,1-1.09-.41A0.71,0.71,0,0,1,261.61,279.47ZM260,294.4c0.44,0.48-.49.78-0.12,1.27l-0.39.09a1.74,1.74,0,0,1-.59-1.11c0.46-.52.68-1.74,1.43-2.08,0.25,0,.65-0.07.64,0.27A2.06,2.06,0,0,1,260,294.4Zm2.51-7.48c-0.77-1.15-2.41-.36-2.67-2.21-0.39-1.32,1.46-.5,1.33-1.8a0.54,0.54,0,0,1,.81-0.44,0.76,0.76,0,0,1,.36.83c-0.22.13-.54,0.54-0.79,0.18-1.22.12,0.44,0.48-.08,1.1,0.5,0.38.14,1,.65,1,0.21,0.53.87,0.55,0.92,1.12a2.2,2.2,0,0,1,1.36.85,1.15,1.15,0,0,1-1,1,1.47,1.47,0,0,1-1.38-.93A0.93,0.93,0,0,1,262.5,286.92Zm3.25,9.4-0.2.21,0-.16Zm-1.38,4.48a1,1,0,0,1-1,.24c-0.1-.06-0.22.13-0.1,0.27l-0.76-.41c-0.46-.56.22-0.47,0-0.92l0.2-.21c0.67,0,2.13-1.24,2.59.07C265.36,300.4,264.59,300.33,264.37,300.79Zm1.15-2.93c-0.18,0-.59,0-0.58-0.36a0.92,0.92,0,0,1,1.15-.77C267,297.36,265.61,297.51,265.52,297.87Zm41.79-22.2a1.74,1.74,0,0,1-1.08,1.08c-0.08,0-.49,0-0.47-0.22,0.36-.58.35-2.08,1.39-1.57C307.44,275.14,307.1,275.46,307.31,275.66Zm-0.25-1.44c-0.42.35-.61-0.11-1-0.19-0.44-.48.47-0.86,0.88-0.53A0.46,0.46,0,0,1,307.06,274.23Zm-1-4.19a0.81,0.81,0,0,1,.53.88c-0.22.47-.52,0.28-0.9,0C305.91,270.67,305.72,270.21,306.1,270Zm-0.95,10-0.39-.24a0.59,0.59,0,0,1,.86-0.61c0.31,0.26.28,0.85,0,.92,0.36,0.83,0,1.26-.85,1.36a0.83,0.83,0,0,0,.57.29,2.51,2.51,0,0,1-.75,1.42,5.21,5.21,0,0,1-1,2.81c-1.05.49-.75,1.42-1,2.32-1.5,1.09-1.59,2.86-2.79,4.14-1.36,1.31-2.56,3.34-4.48,3.28a0.48,0.48,0,0,1-.32-0.67,12.72,12.72,0,0,0,3.85-3.13c1-.24,1-1.56,1.54-2.35,0.39-.84,1.12-1.26,1.51-2.1-0.33-1.42,1.71-2,1.61-3.45,0.25-.72,0-1.91.77-2.42C303.77,280.89,305,280.62,305.15,280Zm-1.79-4.5a0.38,0.38,0,0,1,.49,0,1,1,0,0,1,0,1c0,0.18-.36.25-0.32,0.07a3.44,3.44,0,0,1-.27-0.44C303.49,276,303.42,275.73,303.36,275.49Zm-0.68-8c0.69,0.09.15,0.63,0.16,1a0.36,0.36,0,0,1-.55-0.21C302.24,268.1,302.35,267.49,302.68,267.5ZM302.43,279a0.76,0.76,0,0,1,.24.69c-0.12.19-.6,0.3-0.63,0.15C301.67,279.71,301.83,278.59,302.43,279Zm-0.9,1.87c0.29,0.18.53-.21,0.64,0.27a0.61,0.61,0,0,1-.35.66,0.69,0.69,0,0,1-.84-0.39A2.79,2.79,0,0,1,301.53,280.91Zm-2-6.86a0.61,0.61,0,0,1-.52-0.46c-0.13-.55.68-0.66,0.93-0.3S299.95,274,299.53,274Zm0.41-1.09-0.07-.32,0.08,0C300.13,272.66,300.2,273,299.95,273ZM298,287.78c0.81-.44.68-1.74,1.23-2.61,0.11-.94,1.36-1.31,1.06-2.24a1.4,1.4,0,0,1,.67-1.07,0.93,0.93,0,0,1,.7.5c-0.2.21,0,.67-0.39,0.84,0.28,0.52-.2,1.29-0.51,1.78-0.13,1.61-1.49,2.92-2.2,4.5a1,1,0,0,1-1.15.43C297,289.18,297.6,288.38,298,287.78ZM278.86,294a0.24,0.24,0,0,1-.15.45,0.67,0.67,0,0,1-.49-0.3A0.42,0.42,0,0,1,278.86,294Zm-8.57,8.3a2.36,2.36,0,0,1-1.65,0,2.47,2.47,0,0,1-1.79-.92c-0.13-.22-0.24-0.69.15-0.78a1.22,1.22,0,0,1,1,.53c0.32-.07.57,0.29,0.84,0.05l-0.05-.24c0.3-.15.75-0.34,0.92,0-0.1-.06-0.16,0-0.22.13C269.72,301.64,270.41,301.73,270.3,302.34Zm7.5-.32c-0.52.62-1.59,0-2.21,0.18-0.57,0-1-.51-1.58-0.38-0.72-.58-1.32-1-2.13-1.67-0.22.13-.24,0.05-0.37-0.16-1.15.43-2.11-.84-2.93-1.15l-0.43-1.15-0.16,0c0.31-.82-0.77-1.9-0.13-2.72l-1.09-.75c0-.26.22-0.13,0.36-0.25,0.84,0.39,2,.21,2.5,1.09a0.82,0.82,0,0,1-.66.4,1.09,1.09,0,0,0-.18,1c0.29,0.18-.29.56,0.29,0.52-0.09.69,0.76,0.41,0.83,1.06,0.64,0.27,1.38.93,2.27,0.47,1-.24.63,1.27,1.13,1.65a2.74,2.74,0,0,1,1.66.7l2.59,0.4C277.74,301.45,278.15,301.77,277.79,302Zm22.89-3.53c-1.34,1.06-2.27,2.77-4.11,3.11a19.55,19.55,0,0,1-5,1.82c-2.19.59-4.25,0-6.26,0.28-0.56-.62-1.69-0.11-2.35-0.46,0,0.08,0,.18,0,0.26l-1.73-.27a2.25,2.25,0,0,1-1.63.13c-0.67-1.09,1.16-1.1,1.08-2.16-0.55-1.29-2-.86-3-1-0.75-.74-2.61-0.15-2.62-1.64-0.44-.81-1.37-0.52-2.13-0.59-0.29-1.26-2.34-1.12-2.23-2.48,1.3-.13,2.14,1.34,3.42,1.12a5.82,5.82,0,0,0,2.4.69,6.08,6.08,0,0,0,2.25,1.48,0.71,0.71,0,0,0,1-.55c0.53-1-.75-1.08-1-1.77s0.88-.87,1.26-1c0.13-.53.36-1.33,1-1.24,1.11,0.49,2.25.4,3.29,0.91,1.46-.5,2.79-0.15,4-0.5A5.19,5.19,0,0,1,292.6,293a4.88,4.88,0,0,1,1.39-.82c1.09-.33,1.72-1.9,3-1.6a1.11,1.11,0,0,1-.4,1.17A7.55,7.55,0,0,1,292,294c-1.46.5-2.63,1.94-4.3,1.91-1.94.61-4.36-.16-6.44-0.51a1.41,1.41,0,0,0-.55,1.21c0.69,0.09,1.14,1,1.91.72,0.42,0.4.89-.12,1.39,0.26,1.14-.1,2.2.16,3.33-0.35a7.6,7.6,0,0,0,5-1.32c0.24-.05.77,0.07,0.74,0.33-0.18,1.37-1.68,1.38-2.57,1.84-1.94-.13-3.39.45-5.31,0.06a3.74,3.74,0,0,1-2.5,0,3.47,3.47,0,0,0-1.09-.75c-0.18.29-.72,0.5-1,0.89s0.12,0.89-.39.84c4,1.82,8.34.82,12.41,0,1.2-.19,1.81-1.17,3-1.28a1.3,1.3,0,0,1,1.11-.59c0.55-1.21,2.22-1.18,2.79-2.31,0.16,0,.53.13,0.33,0.34a6,6,0,0,1-3.83,2.88,6,6,0,0,1-3.52,2.06,15.21,15.21,0,0,1-4.58,1.06,17.29,17.29,0,0,1-5.24-.37c-0.4.09-.84-0.05-0.75,0.34l-0.29.56,1.39,0.6a13.55,13.55,0,0,0,3.79.21,1.69,1.69,0,0,0,1.08,0c0.92,0,1.74-.4,2.62-0.19,0.83,0,1.45-.58,2.23-0.43l1.29-.55c1.14-.84,2.47-0.49,3.55-1.57,1.19-.61,1.87-2.35,3.43-2.45A2.3,2.3,0,0,1,300.68,298.49ZM307.06,285a0.81,0.81,0,0,1-.27,1c0.55,1-1.08,1.83-1.45,2.75-1,1.14-.82,2.93-2.33,3.61-0.6.3-.49,1.11-1.17,1.43a0.67,0.67,0,0,1-1,.14,1.7,1.7,0,0,1,.12-1.28,1.32,1.32,0,0,1,1.15-.43,2.56,2.56,0,0,1,.4-1.51c1.27-.63,1.43-2.08,2.12-3.07,0.38-.5,1-0.47.77-1.34s1.34-1.06.71-2a1.69,1.69,0,0,1,1.18-1c0.49,0,.41.32,0.66,0.68A1.08,1.08,0,0,1,307.06,285Zm1.53-2.76c-0.35-.09-0.6.3-0.94-0.12a1.74,1.74,0,0,1,1.11-1.34,0.64,0.64,0,0,1,.39.24A1.38,1.38,0,0,1,308.59,282.27Zm1.44-5.66c-0.06.1-.2,0.21-0.32,0.07s0.1-.27.24-0.39C310,276.36,310.17,276.5,310,276.62Zm1-5.47a2.94,2.94,0,0,1-.25.72,0.81,0.81,0,0,0-.09-0.73l-0.73.42a0.79,0.79,0,0,1-.89-0.63c0.24-.39.33-1.08,1-1.06a1,1,0,0,1,.93.78C311.19,270.86,310.74,271,311,271.15Zm7.08,9.43c0.27,0.1.41,0,.57,0.29-0.21.88-.65,0.07-1,0.81a0.3,0.3,0,0,1-.39-0.24A1.09,1.09,0,0,1,318.09,280.58Zm-3.88,7.71c0.62-.56.52-1.37,1-2-0.43-.07-0.32-0.67-0.22-0.95a1.52,1.52,0,0,1,1.2-1.28,1.72,1.72,0,0,0-.15-0.63,1,1,0,0,1,1.45-.58c0.75,0.74-.69,1-0.54,1.62-0.44.6-.5,1.45-1.14,1.93-0.06.1,0,.25,0.06,0.24-0.26.31,0,1-.51,1l0,0.16a3.19,3.19,0,0,1-.73,2.25c-1.07.41-.78,2-2,2.2l-0.15-.3ZM282,315.78c-0.41,0-.75,0-0.64-0.6,0.56-.46,1.12-0.18,1.69-0.22a2.32,2.32,0,0,1,1.58-.7,1,1,0,0,1,1.11.49C285.7,316.83,283.05,315.45,282,315.78Zm6.59-.27a1.58,1.58,0,0,1-1.06-.26c-0.15-.63.92-0.71,1.17-0.35C288.82,314.86,288.87,315.43,288.56,315.51Zm-1.63-2a1.77,1.77,0,0,0-1.57,0,0.68,0.68,0,0,1-.56-0.62,0.71,0.71,0,0,1,.74-0.75c0.49,0,1.3-.13,1.52.48a2.15,2.15,0,0,1,2.11-.24C289.21,313.28,287.85,313.17,286.92,313.47Zm4.19,1.2a0.61,0.61,0,0,1-.79.18c-0.25-.36-0.51,0-0.81.1-0.12-.14,0-0.25.08-0.35,0.29,0.18.46-.19,0.69-0.24C290.5,314.56,291.28,314,291.11,314.67Zm0.1-2.1a1.57,1.57,0,0,1-1.63-.21c0.21-.88,1.47-0.84,2.13-0.49A0.79,0.79,0,0,1,291.2,312.57Zm-7.5,8.22a0.48,0.48,0,0,1-.69-0.09,0.36,0.36,0,0,1,.4-0.42C283.67,320.29,283.9,320.57,283.7,320.79Zm-8.17,7.12c-0.37-.16-0.91,0-1-0.51A0.87,0.87,0,0,1,275,327a2,2,0,0,1,1.66.36l0.2-.21c0.53,0.13,1.44-.25,1.6.46C277.78,328.64,276.54,327.59,275.53,327.91Zm7.75,4c-0.16,0-.43-0.07-0.39-0.24a0.42,0.42,0,0,1,.63-0.15Zm5.33,1.1a1.58,1.58,0,0,1-1.25-.71c-0.09-.39.3-0.49,0.54-0.54,0.63-.15.76,0.41,1.17,0.73A0.52,0.52,0,0,1,288.61,333Zm10.65-2.13a7.65,7.65,0,0,0-1.49,1.09,1.16,1.16,0,0,1-.66-0.35c-0.25-1.1.93-.63,1.49-1.09C298.86,330.6,299.35,330.57,299.27,330.92Zm-0.67-1.84a0.75,0.75,0,0,1-.72-0.58l-0.22.13a1.7,1.7,0,0,0-1.65,0c-0.68,1.4-2.13,1.24-3.48,1.88-0.22.13-1,.55-1.16,0a2.83,2.83,0,0,1,.87-1.28c0.08-1.43,1.6-.62,2.32-1.12,1.18-2.1,3.19-.24,5-1a9.63,9.63,0,0,1,3.28-.92,5.23,5.23,0,0,1,2.5-1.08,8.64,8.64,0,0,1,3.26-1.75c0.85-.28,1.38-1.23,2.56-1.17a0.54,0.54,0,0,1-.09.69,22.6,22.6,0,0,0-3.46,2.3c-1,.49-2.19.59-3,1.44-1.24,0-2.46,1.23-3.85,1C299.72,327.82,299.5,328.7,298.59,329.08Zm9-9.31c0.41,0,.9.29,1.09-0.33,0.36-.25.72-0.5,1-0.16l0.14-.12c-0.08-1.06,1.09-1.42,1.79-2a0.27,0.27,0,0,1,0,.41c-1.13.51-1.15,1.85-2.07,2.56-0.1.27-.65,0.07-0.64,0.48-1.67,1.05-3.25,2.5-5.3,2.64-1.7,1.31-3.78,1.29-5.56,2.2a0.92,0.92,0,0,1-1.08-.33,1.48,1.48,0,0,1,1.21-.53c0.59-1.05,2.14-.83,3.12-0.89l1.18-1a7.88,7.88,0,0,0,1.49-.76C305.57,321.48,306.26,320.15,307.59,319.77ZM306.95,317c-0.13-.55.84-1,1.13-0.51a0.49,0.49,0,0,1-.35.66A1,1,0,0,1,306.95,317Zm2.41-8.29a0.59,0.59,0,0,1-.86-0.13,1.56,1.56,0,0,1,1.22-1.2,0.59,0.59,0,0,1,.66.35A1.51,1.51,0,0,1,309.36,308.71ZM312,309.6a0.5,0.5,0,0,1,0,.49c-0.66.4-.51,1-1.3,1.21-0.18,0-.71.16-0.8-0.23l0.08-.35A3.05,3.05,0,0,1,312,309.6Zm11.1,3.43c-0.72.5-.53,1.29-1,1.81l0.13,0.22c-0.77,2.09-2.94,2.76-3.53,4.89a1.26,1.26,0,0,1-1,.65l0.2,0.12a7.62,7.62,0,0,0-1.94,1.69l0.12,0.14a2.23,2.23,0,0,1-1.08,1.08c-0.6,1.72-2.1,1.73-3.43,2.45a13.41,13.41,0,0,1-2.11,1.32c-0.77.26-1.06,1.16-1.89,1.18-0.82-.31-1.15.77-1.94,0.95a2.75,2.75,0,0,1-2.42,0l-0.06.1a0.5,0.5,0,0,0,.19.46,3.18,3.18,0,0,1-2.76.64c0.06-.1.18-0.29-0.07-0.32a2.11,2.11,0,0,1,1.83-1.09c0.73,0.66.89-.46,1.66-0.38,0.17,0.38.53-.21,0.73-0.09a0.3,0.3,0,0,0,.12-0.19l2.61-.6a2.2,2.2,0,0,1,1.62-1.29c0.27-.64,1.44-0.25,1.5-1.09,1.38-1.23,3.14-1.89,4.27-3.48,0.37-1.66,2-2.38,3.28-3.09,0.94-1,1.56-2.27,2.4-3.3,0.14-1.2,1.18-2.1,1.69-3.13,0.36-.25.56-0.46,0.95-0.22A0.5,0.5,0,0,1,323.08,313Zm-8.39,1.85c0.25-.72,1.11-0.59,1.57-0.78,1.15-.43,2-1.62,3-2.27,0.24-.05.21,0.2,0.15,0.3,0.75,1.08-.45,2-0.92,2.87-0.69,1-.54,2.7-2,3-0.87-.55.57-1.13,0.64-1.9,0.15-.45-0.38-0.91-0.11-1.22l-0.08,0a0.35,0.35,0,0,0-.24.39,2.07,2.07,0,0,0-.86.61,2.56,2.56,0,0,1-2.19.25,1.1,1.1,0,0,1-1.2.19l0.21-.55c0.4-.43.39-0.09,0.85-0.28,0.62-.56,1,0.51,1.48-0.43Zm-2,5.21c0.24-.39.49,0,0.63,0.19,0,0.41-.58.38-0.47,0.86a0.74,0.74,0,0,1-.95.22,0.57,0.57,0,0,1,.15-0.78C312.3,320.34,312.68,320.59,312.65,320.09Zm8.83-11.85a0.86,0.86,0,0,1,1.12-.18c0.36,0.83-.74.75-1,1.22a2.68,2.68,0,0,1-1.45,1.66c-0.38.17-.49-0.3-0.48-0.64s0.54-.54.63-0.89C320.62,308.86,321.29,308.87,321.48,308.24Zm-0.91-3.95c0-.41.72-0.83,0.77-0.26a0.55,0.55,0,0,1-.62.56Zm5.07-1.09a2.74,2.74,0,0,1,.1.81c-1.21.53-.95,2.38-2.39,2.63a0.6,0.6,0,0,1-.52-0.8,6.08,6.08,0,0,1,.91-0.38c-0.11-.47.72-0.5,0.29-0.9A1.52,1.52,0,0,1,325.64,303.21Zm-5.26-5.86c0-1.42,1.31-2.63,1.14-4.09a1.89,1.89,0,0,1-.68-0.43,1,1,0,0,1,.74-0.42c0.4-.42,1.18-1,0.94-1.71,0.15-.78-0.46-0.89-0.84-1.47,0.07-.43.38-0.17,0.69-0.24a1.63,1.63,0,0,1,1-.55c0.5-.7.81-0.1,1.42-0.33a0.57,0.57,0,0,1,.22.95,0.92,0.92,0,0,1-.92,0c-0.62.56-.22,1.55-0.22,2.3,0,0.51-.45.94-0.18,1.37a48.7,48.7,0,0,0-2.54,5.58c-0.55.13-1.23,0.45-1.31-.28C319.88,297.72,319.91,297.13,320.38,297.35Zm-0.27,8.55a1,1,0,0,1-1,.47L319,306A0.56,0.56,0,0,1,320.11,305.9Zm-1.16,1.43a0.86,0.86,0,0,1-.44.6,0.56,0.56,0,0,1-.74-0.33,0.71,0.71,0,0,1,.62-0.56C318.65,307.15,318.85,306.94,318.94,307.33Zm-0.19-5.86a0.83,0.83,0,0,1,0,.75,0.85,0.85,0,0,1-1.28.21l-0.09-.39C317.82,301.77,318.05,301,318.75,301.47ZM316,300.1a0.44,0.44,0,0,1,.43.4,0.54,0.54,0,0,1-.5.36c-0.18,0-.43-0.07-0.41-0.32A0.54,0.54,0,0,1,316,300.1Zm-0.75,5.41a4.6,4.6,0,0,0,1.06-1.91c0.39-.09.56-0.79,1-0.39,0.87,0.88-.83,1.11-0.9,1.87l0.29,0.18c0.44,0.48.08,0.73-.06,1.18-0.52.62-1.09,0.33-1.82,0.75l0.13,0.22a1,1,0,0,1-1.23.45c-0.44-.81.39-1.17,0.78-1.68C314.78,305.88,315.52,306.21,315.28,305.52ZM313.61,303c0.24-.39.75-0.34,0.72-0.83,0.14-.12.54-0.21,0.51,0-0.22.47,0.3,0.93-.12,1.28a1,1,0,0,1-1.15.43A0.77,0.77,0,0,1,313.61,303Zm0,8.49c0.22-.13.78-0.6,0.95-0.22a0.24,0.24,0,0,0,.3-0.15c0.06-.1-0.14-0.22-0.11-0.47a2,2,0,0,1,1.68-1.39,1.67,1.67,0,0,1,1.16-1.1c0.3-.15.29,0.18,0.41,0.32a1,1,0,0,1-.3.49c-0.88,1.62-2,3.21-4,3.66-1.45.92-2,3.29-4,3.17-0.7-1.25,1.29-2,1.8-2.66,0.33,0.34.46-.19,0.69-0.24C312,312,313.2,312,313.58,311.48Zm-3.3-12.13c0.46,0.56-.39.84-0.44,1.35-0.4.42-.77-0.07-0.86-0.47C309.31,299.82,309.58,299.18,310.28,299.35Zm-5.76,10c-1.7,1.31-4,1.84-5.58,3.2-2.18.67-3.9,2.56-6.07,2.15a0.47,0.47,0,0,1-.54-0.54c0.09-.69,1-0.55,1.39-0.82,1.8,0.25,3.58-1.08,5.22-1.87l1.52-.6c0.4-.43,1-0.73,1.4-1.15,0.95-.22,1.66-1.46,2.58-1.09A0.79,0.79,0,0,1,304.51,309.33Zm0.2-3.46c-1.56.44-2.67,2.11-4.28,2.73-2.34,1-4.64,3.32-7.47,3a0.39,0.39,0,0,1-.13-0.55,17.71,17.71,0,0,0,2.48-1.15c1.11-.59,2.39-0.8,3.29-1.59l3.15-1.48c0.89-1.2,2.5-1.41,3-2.85,0.46-1.27,1.78-1.66,2.73-2.21,0.32-.07.23,0.28,0.41,0.32C307.27,303.62,305.26,304.25,304.72,305.87Zm1.61,2.29c-0.35-.09-0.83,0-0.84-0.39a1.4,1.4,0,0,1,.79-1.26,2,2,0,0,0,1.63-.87,1.46,1.46,0,0,1,.73-1.17c0.24-.39,1.06-0.08.86-0.61a0.5,0.5,0,0,1,.53-0.21c0.11-.61.45-0.94,0.5-1.45a1.34,1.34,0,0,1,.95-0.22l-0.09-.39a0.64,0.64,0,0,1,.79-0.52,0.62,0.62,0,0,1,.18.79,0.54,0.54,0,0,1-.83,0c-0.15.45,0.27,0.44,0.18,0.79a1,1,0,0,1-.67,1.07c-0.65.07-.69,1-1.38,1.23a2.48,2.48,0,0,1-1.64,1.54A3.3,3.3,0,0,1,306.33,308.16ZM304,315.28a3.79,3.79,0,0,0,2.19-1.67c0.16-.37.69-0.24,0.62-0.56a1.13,1.13,0,0,1,.71-0.16c0.81,0.64-.47,1.19-0.41,1.84a2.48,2.48,0,0,1-2,1,0.67,0.67,0,0,1-.68.66,1.16,1.16,0,0,1-1.45-.16A1.43,1.43,0,0,1,304,315.28Zm-10.18,4.18a2,2,0,0,1,1.37-.56,1.93,1.93,0,0,1,1.78-.58,2.94,2.94,0,0,0,2.09-.65,1.43,1.43,0,0,0,1.21-.53,2.65,2.65,0,0,1,1.93-.28c-0.14,1.2-1.82.75-2.48,1.49a0.61,0.61,0,0,1-.48.44c-1,.89-1.91.36-2.86,0.58-0.44.6-1.43,0.66-2.3,0.86A0.63,0.63,0,0,1,293.79,319.45Zm-2.38.13c0.43,0.07.87-.2,1.21,0.22,0,0.16.15,0.3,0,.41a2.89,2.89,0,0,1-2.56.09C290.16,319.21,291.16,320.31,291.41,319.59Zm-4.75,6.83c-0.25,0-1.14-.24-0.74-0.66a3.65,3.65,0,0,1,1.58-.36c1.31-.47,3,0.55,4.25-0.32,0.43-1-1.14-1-1.11-1.91,0.66-.73,1.37-0.56,2.28-0.94,1.72,0.6,3.17-.32,4.56-1.14,1.59-.7,2.75-0.72,4.73-1.51a3.26,3.26,0,0,1,1.63-.87,1.48,1.48,0,0,1,1.6-.62,0.49,0.49,0,0,1,.15.63c-1,.16-1.31,1.55-2.47,1.57-1.51.68-3.2,1.65-4.59,1.73-1.36.23-1.6,1.7-2.49,2.57l0.26,0.77c-0.78.93-1.88,0.85-3,.69A22.35,22.35,0,0,1,286.67,326.42Z" transform="translate(-256.28 -261.56)"/><path class="cls-3" d="M278.64,308.56a2.76,2.76,0,0,0,1.8.58l0.77-.26c-0.37-1.25-1.72-1.35-2.76-1.53a0.77,0.77,0,0,0-.48.78C278.09,308.36,278.14,308.93,278.64,308.56Z" transform="translate(-256.28 -261.56)"/><path class="cls-3" d="M258.53,297.82a8.08,8.08,0,0,1-2.24-1c0,0.69,0,1.38,0,2.07a1.48,1.48,0,0,1,.58.15c0.75-.34,1.58.72,2.25,0.4a0.42,0.42,0,0,0,.35.08A2.25,2.25,0,0,0,258.53,297.82Z" transform="translate(-256.28 -261.56)"/><circle class="cls-4" cx="292.25" cy="297.53" r="35.96" transform="translate(-291.84 -221.86) rotate(-7.33)"/><path class="cls-2" d="M268.19,295.36a6.74,6.74,0,0,0-.44,2.54,6.46,6.46,0,0,0,.47,2.61,3.62,3.62,0,0,0,1.29,1.62,3.17,3.17,0,0,0,1.79.54,3.28,3.28,0,0,0,1.8-.52,3.56,3.56,0,0,0,1.3-1.59,6.46,6.46,0,0,0,.49-2.67,6.29,6.29,0,0,0-.49-2.58,3.89,3.89,0,0,0-1.31-1.66,3.13,3.13,0,0,0-1.81-.57,3,3,0,0,0-1.83.59,3.75,3.75,0,0,0-1.25,1.68h0ZM275.6,305a2.25,2.25,0,0,1-.51-1.58v-0.18a7,7,0,0,1-3.09,2,5.83,5.83,0,0,1-1.88.28,5.53,5.53,0,0,1-2.5-.57,5.82,5.82,0,0,1-2-1.64,7.48,7.48,0,0,1-1.27-2.5,10.7,10.7,0,0,1-.43-3.11,8.12,8.12,0,0,1,1.72-5.51,5.71,5.71,0,0,1,4.53-2,6,6,0,0,1,2.74.57,6.84,6.84,0,0,1,2.17,1.56V287a2.83,2.83,0,0,1,.47-1.77,1.59,1.59,0,0,1,1.33-.6,1.65,1.65,0,0,1,1.33.55,2.42,2.42,0,0,1,.47,1.61v16.65a2.3,2.3,0,0,1-.5,1.62,1.8,1.8,0,0,1-2.58,0h0Z" transform="translate(-256.28 -261.56)"/><path class="cls-2" d="M316.11,299.12c0-1-1.39-.73-2.58-0.58a13,13,0,0,0-2.17.49,3,3,0,0,0-1.15.62,1.58,1.58,0,0,0-.55,1.28,1.89,1.89,0,0,0,.64,1.44,2.39,2.39,0,0,0,1.69.6,5.17,5.17,0,0,0,2.24-.49,3.23,3.23,0,0,0,1.38-1.25,3.08,3.08,0,0,0,.51-2.11h0Zm3.51,6.24c-1,.59-2.64-0.14-3.4-1.76a7.26,7.26,0,0,1-5.5,2,5.42,5.42,0,0,1-2.54-.57,4.19,4.19,0,0,1-1.69-1.55,4,4,0,0,1-.59-2.13,3.83,3.83,0,0,1,1-2.63c1.15-1.3,3.88-1.81,4.83-2,1.86-.33,4.26-0.4,4.26-1.41a2.53,2.53,0,0,0-2.8-2.41c-2.41,0-3.15,1-3.49,1.48-1,1.54-2.34,1.25-2.65,1a1.32,1.32,0,0,1-.46-1,3.18,3.18,0,0,1,.7-1.93,5.05,5.05,0,0,1,2.2-1.54,9.94,9.94,0,0,1,3.72-.61,10.51,10.51,0,0,1,3.91.59,3.64,3.64,0,0,1,2,1.85,8.13,8.13,0,0,1,.59,3.37q0,1.32,0,2.25c0,0.62,0,1.3,0,2.06a9.62,9.62,0,0,0,.45,2.53c0.3,1,.49,1.92-0.5,2.51h0Z" transform="translate(-256.28 -261.56)"/><path class="cls-2" d="M293.16,291.19a1.67,1.67,0,0,0-.64-0.7,1.75,1.75,0,0,0-.9-0.23,1.61,1.61,0,0,0-1.28.53,2.36,2.36,0,0,0-.47,1.61v10.88a2.49,2.49,0,0,0,.52,1.7,1.71,1.71,0,0,0,1.34.59,1.79,1.79,0,0,0,1.37-.57,2.45,2.45,0,0,0,.53-1.72v-4.72a11.81,11.81,0,0,1,.28-3.15,3.46,3.46,0,0,1,1.22-1.65,3.08,3.08,0,0,1,1.84-.6,2.12,2.12,0,0,1,2.07,1,6.28,6.28,0,0,1,.52,2.85v6.28a2.48,2.48,0,0,0,.52,1.7,1.74,1.74,0,0,0,1.37.59,1.72,1.72,0,0,0,1.35-.58,2.49,2.49,0,0,0,.52-1.71v-7a15.44,15.44,0,0,0-.11-2,4.36,4.36,0,0,0-.48-1.49,4.1,4.1,0,0,0-1.76-1.82,5.48,5.48,0,0,0-2.67-.64,6.27,6.27,0,0,0-4.9,2.33v-0.26a2.44,2.44,0,0,0-.24-1.13h0Z" transform="translate(-256.28 -261.56)"/><path class="cls-2" d="M285.72,290.83a1.8,1.8,0,0,0-1.36-.57,1.73,1.73,0,0,0-1.34.57,2.42,2.42,0,0,0-.52,1.68v10.76A2.51,2.51,0,0,0,283,305a1.7,1.7,0,0,0,1.34.59,1.78,1.78,0,0,0,1.36-.58,2.43,2.43,0,0,0,.54-1.71V292.4a2.19,2.19,0,0,0-.54-1.57h0Z" transform="translate(-256.28 -261.56)"/><path class="cls-2" d="M285.72,285.17a1.8,1.8,0,0,0-1.36-.57,1.73,1.73,0,0,0-1.34.57,2.42,2.42,0,0,0-.52,1.68v0.31a2.51,2.51,0,0,0,.52,1.7,1.7,1.7,0,0,0,1.34.59,1.78,1.78,0,0,0,1.36-.58,2.43,2.43,0,0,0,.54-1.71v-0.42a2.19,2.19,0,0,0-.54-1.57h0Z" transform="translate(-256.28 -261.56)"/><path class="cls-5" d="M267.7,294.87a6.74,6.74,0,0,0-.44,2.54,6.46,6.46,0,0,0,.47,2.61,3.62,3.62,0,0,0,1.29,1.62,3.17,3.17,0,0,0,1.79.54,3.28,3.28,0,0,0,1.8-.52,3.56,3.56,0,0,0,1.3-1.59,6.46,6.46,0,0,0,.49-2.67,6.29,6.29,0,0,0-.49-2.58,3.89,3.89,0,0,0-1.31-1.66,3.13,3.13,0,0,0-1.81-.57,3,3,0,0,0-1.83.59,3.75,3.75,0,0,0-1.25,1.68h0Zm7.41,9.65a2.25,2.25,0,0,1-.51-1.58v-0.18a7,7,0,0,1-3.09,2,5.83,5.83,0,0,1-1.88.28,5.53,5.53,0,0,1-2.5-.57,5.82,5.82,0,0,1-2-1.64,7.48,7.48,0,0,1-1.27-2.5,10.7,10.7,0,0,1-.43-3.11,8.12,8.12,0,0,1,1.72-5.51,5.71,5.71,0,0,1,4.53-2,6,6,0,0,1,2.74.57,6.84,6.84,0,0,1,2.17,1.56v-5.42a2.83,2.83,0,0,1,.47-1.77,1.59,1.59,0,0,1,1.33-.6,1.65,1.65,0,0,1,1.33.55,2.42,2.42,0,0,1,.47,1.61v16.65a2.3,2.3,0,0,1-.5,1.62,1.8,1.8,0,0,1-2.58,0h0Z" transform="translate(-256.28 -261.56)"/><path class="cls-5" d="M315.62,298.63c0-1-1.39-.73-2.58-0.58a13,13,0,0,0-2.17.49,3,3,0,0,0-1.15.62,1.58,1.58,0,0,0-.55,1.28,1.89,1.89,0,0,0,.64,1.44,2.39,2.39,0,0,0,1.69.6,5.17,5.17,0,0,0,2.24-.49,3.23,3.23,0,0,0,1.38-1.25,3.08,3.08,0,0,0,.51-2.11h0Zm3.51,6.24c-1,.59-2.64-0.14-3.4-1.76a7.26,7.26,0,0,1-5.5,2,5.42,5.42,0,0,1-2.54-.57,4.19,4.19,0,0,1-1.69-1.55,4,4,0,0,1-.59-2.13,3.83,3.83,0,0,1,1-2.63c1.15-1.3,3.88-1.81,4.83-2,1.86-.33,4.26-0.4,4.26-1.41a2.53,2.53,0,0,0-2.8-2.41c-2.41,0-3.15,1-3.49,1.48-1,1.54-2.34,1.25-2.65,1a1.32,1.32,0,0,1-.46-1,3.18,3.18,0,0,1,.7-1.93,5.05,5.05,0,0,1,2.2-1.54,9.94,9.94,0,0,1,3.72-.61,10.51,10.51,0,0,1,3.91.59,3.64,3.64,0,0,1,2,1.85,8.13,8.13,0,0,1,.59,3.37q0,1.32,0,2.25c0,0.62,0,1.3,0,2.06a9.62,9.62,0,0,0,.45,2.53c0.3,1,.49,1.92-0.5,2.51h0Z" transform="translate(-256.28 -261.56)"/><path class="cls-5" d="M292.67,290.7A1.67,1.67,0,0,0,292,290a1.75,1.75,0,0,0-.9-0.23,1.61,1.61,0,0,0-1.28.53,2.36,2.36,0,0,0-.47,1.61v10.88a2.49,2.49,0,0,0,.52,1.7,1.71,1.71,0,0,0,1.34.59,1.79,1.79,0,0,0,1.37-.57,2.45,2.45,0,0,0,.53-1.72v-4.72a11.81,11.81,0,0,1,.28-3.15,3.46,3.46,0,0,1,1.22-1.65,3.08,3.08,0,0,1,1.84-.6,2.12,2.12,0,0,1,2.07,1,6.28,6.28,0,0,1,.52,2.85v6.28a2.48,2.48,0,0,0,.52,1.7,1.74,1.74,0,0,0,1.37.59,1.72,1.72,0,0,0,1.35-.58,2.49,2.49,0,0,0,.52-1.71v-7a15.44,15.44,0,0,0-.11-2,4.36,4.36,0,0,0-.48-1.49,4.1,4.1,0,0,0-1.76-1.82,5.48,5.48,0,0,0-2.67-.64,6.27,6.27,0,0,0-4.9,2.33v-0.26a2.44,2.44,0,0,0-.24-1.13h0Z" transform="translate(-256.28 -261.56)"/><path class="cls-5" d="M285.23,290.34a1.8,1.8,0,0,0-1.36-.57,1.73,1.73,0,0,0-1.34.57A2.42,2.42,0,0,0,282,292v10.76a2.51,2.51,0,0,0,.52,1.7,1.7,1.7,0,0,0,1.34.59,1.78,1.78,0,0,0,1.36-.58,2.43,2.43,0,0,0,.54-1.71V291.91a2.19,2.19,0,0,0-.54-1.57h0Z" transform="translate(-256.28 -261.56)"/><path class="cls-5" d="M285.23,284.68a1.8,1.8,0,0,0-1.36-.57,1.73,1.73,0,0,0-1.34.57,2.42,2.42,0,0,0-.52,1.68v0.31a2.51,2.51,0,0,0,.52,1.7,1.7,1.7,0,0,0,1.34.59,1.78,1.78,0,0,0,1.36-.58,2.43,2.43,0,0,0,.54-1.71v-0.42a2.19,2.19,0,0,0-.54-1.57h0Z" transform="translate(-256.28 -261.56)"/></svg>