<?xml version="1.0" encoding="utf-8"?>
<!-- Generator: Adobe Illustrator 27.0.1, SVG Export Plug-In . SVG Version: 6.00 Build 0)  -->
<svg version="1.1" id="Lager_1" xmlns="http://www.w3.org/2000/svg" xmlns:xlink="http://www.w3.org/1999/xlink" x="0px" y="0px"
	 viewBox="0 0 602.6 104.2" style="enable-background:new 0 0 602.6 104.2;" xml:space="preserve">
<style type="text/css">
	.st0{clip-path:url(#SVGID_00000077325885092235179420000002042803771959934142_);fill:#009AB2;}
	.st1{fill:#009AB2;}
	.st2{clip-path:url(#SVGID_00000013903504249541890930000011736053956660005298_);fill:#009AB2;}
	.st3{clip-path:url(#SVGID_00000052787497598536601240000002776370550571062676_);fill:#009AB2;}
	.st4{clip-path:url(#SVGID_00000000196102258424991480000004896399508683205507_);fill:#009AB2;}
	.st5{clip-path:url(#SVGID_00000076566079681447990220000004731979215734425757_);fill:#009AB2;}
	.st6{clip-path:url(#SVGID_00000181073435400674717990000010791750433669801115_);fill:#009AB2;}
	.st7{clip-path:url(#SVGID_00000150803746898899899660000013079797736153768882_);fill:#009AB2;}
	.st8{clip-path:url(#SVGID_00000065076156411609439700000005272972241559042454_);fill:#009AB2;}
	.st9{clip-path:url(#SVGID_00000067202622918398073130000011146565448814766008_);fill:#009AB2;}
</style>
<g>
	<defs>
		<rect id="SVGID_1_" x="-11.4" y="-2.9" width="623.6" height="113.4"/>
	</defs>
	<clipPath id="SVGID_00000067938418625070809000000014442900920272000395_">
		<use xlink:href="#SVGID_1_"  style="overflow:visible;"/>
	</clipPath>
	<path style="clip-path:url(#SVGID_00000067938418625070809000000014442900920272000395_);fill:#009AB2;" d="M52.3,102.6
		c-28,0-50.8-22.8-50.8-50.8C1.5,23.8,24.3,1,52.3,1S103,23.8,103,51.8C103,79.8,80.3,102.6,52.3,102.6z M52.3,14.5
		C31.7,14.5,15,31.3,15,51.8c0,20.6,16.7,37.3,37.3,37.3c20.6,0,37.3-16.7,37.3-37.3C89.5,31.3,72.8,14.5,52.3,14.5z"/>
	<path style="clip-path:url(#SVGID_00000067938418625070809000000014442900920272000395_);fill:#009AB2;" d="M52.3,85.8
		c-18.7,0-34-15.2-34-34c0-18.7,15.2-34,34-34c18.7,0,34,15.2,34,34C86.2,70.5,71,85.8,52.3,85.8z M52.3,31.3
		c-11.3,0-20.5,9.2-20.5,20.5c0,11.3,9.2,20.5,20.5,20.5c11.3,0,20.5-9.2,20.5-20.5C72.7,40.5,63.6,31.3,52.3,31.3z"/>
	<path style="clip-path:url(#SVGID_00000067938418625070809000000014442900920272000395_);fill:#009AB2;" d="M52.3,69
		c-9.5,0-17.2-7.7-17.2-17.2s7.7-17.2,17.2-17.2c9.5,0,17.2,7.7,17.2,17.2S61.7,69,52.3,69z M52.3,48.1c-2,0-3.7,1.7-3.7,3.7
		s1.7,3.7,3.7,3.7s3.7-1.7,3.7-3.7S54.3,48.1,52.3,48.1z"/>
</g>
<path class="st1" d="M319.5,86.8c-2.5,0-4.5-2-4.5-4.5V46.4c0-2.5,2-4.5,4.5-4.5s4.5,2,4.5,4.5v35.9C324,84.8,322,86.8,319.5,86.8z"
	/>
<g>
	<defs>
		<rect id="SVGID_00000027575570134581060920000011669779505536509111_" x="-11.4" y="-2.9" width="623.6" height="113.4"/>
	</defs>
	<clipPath id="SVGID_00000088104575169169368860000001668635514947073173_">
		<use xlink:href="#SVGID_00000027575570134581060920000011669779505536509111_"  style="overflow:visible;"/>
	</clipPath>
	<path style="clip-path:url(#SVGID_00000088104575169169368860000001668635514947073173_);fill:#009AB2;" d="M319.5,65.5
		c-2.5,0-4.5-2-4.5-4.5c0-10.7,8.4-19.4,18.7-19.4c1.3,0,2.5,0.1,3.8,0.4c2.4,0.5,4,2.9,3.5,5.3c-0.5,2.4-2.9,4-5.3,3.5
		c-0.6-0.1-1.3-0.2-1.9-0.2c-5.4,0-9.7,4.7-9.7,10.4C324,63.5,322,65.5,319.5,65.5z"/>
</g>
<path class="st1" d="M432.9,86.8c-2.5,0-4.5-2-4.5-4.5V46.4c0-2.5,2-4.5,4.5-4.5s4.5,2,4.5,4.5v35.9
	C437.4,84.8,435.4,86.8,432.9,86.8z"/>
<g>
	<defs>
		<rect id="SVGID_00000098201498639438229450000013589612507964911758_" x="-11.4" y="-2.9" width="623.6" height="113.4"/>
	</defs>
	<clipPath id="SVGID_00000152255442276988602450000013630727635886970277_">
		<use xlink:href="#SVGID_00000098201498639438229450000013589612507964911758_"  style="overflow:visible;"/>
	</clipPath>
	<path style="clip-path:url(#SVGID_00000152255442276988602450000013630727635886970277_);fill:#009AB2;" d="M432.9,65.5
		c-2.5,0-4.5-2-4.5-4.5c0-10.7,8.4-19.4,18.7-19.4c1.3,0,2.5,0.1,3.8,0.4c2.4,0.5,4,2.9,3.5,5.3c-0.5,2.4-2.9,4-5.3,3.5
		c-0.6-0.1-1.3-0.2-1.9-0.2c-5.4,0-9.7,4.7-9.7,10.4C437.4,63.5,435.4,65.5,432.9,65.5z"/>
	<path style="clip-path:url(#SVGID_00000152255442276988602450000013630727635886970277_);fill:#009AB2;" d="M214.8,87.1
		c-12.5,0-22.7-10.2-22.7-22.7c0-12.5,10.2-22.7,22.7-22.7s22.7,10.2,22.7,22.7C237.6,76.9,227.4,87.1,214.8,87.1z M214.8,50.6
		c-7.6,0-13.7,6.2-13.7,13.7s6.2,13.7,13.7,13.7s13.7-6.2,13.7-13.7S222.4,50.6,214.8,50.6z"/>
</g>
<path class="st1" d="M233.1,86.8c-2.5,0-4.5-2-4.5-4.5V46.3c0-2.5,2-4.5,4.5-4.5s4.5,2,4.5,4.5v36.1
	C237.6,84.8,235.6,86.8,233.1,86.8z"/>
<g>
	<defs>
		<rect id="SVGID_00000168839237546064974040000004620773902175865273_" x="-11.4" y="-2.9" width="623.6" height="113.4"/>
	</defs>
	<clipPath id="SVGID_00000127730367571353223000000003100492080492693687_">
		<use xlink:href="#SVGID_00000168839237546064974040000004620773902175865273_"  style="overflow:visible;"/>
	</clipPath>
	<path style="clip-path:url(#SVGID_00000127730367571353223000000003100492080492693687_);fill:#009AB2;" d="M289,87.1
		c-1.8,0-3.7-0.2-5.5-0.7c-5.9-1.5-10.9-5.1-14-10.4c-6.5-10.8-3-24.8,7.8-31.2c10.8-6.5,24.8-3,31.2,7.8c1.3,2.1,0.6,4.9-1.5,6.2
		c-2.1,1.3-4.9,0.6-6.2-1.5c-3.9-6.5-12.4-8.6-18.9-4.7c-6.5,3.9-8.6,12.4-4.7,18.9c1.9,3.1,4.9,5.4,8.5,6.3
		c3.6,0.9,7.3,0.3,10.4-1.6c1.9-1.1,3.4-2.6,4.6-4.5c1.3-2.1,4.1-2.8,6.2-1.4c2.1,1.3,2.8,4.1,1.4,6.2c-1.9,3-4.5,5.6-7.6,7.5
		C297.1,86,293.1,87.1,289,87.1z"/>
</g>
<path class="st1" d="M273.5,76.7c-1.5,0-3-0.8-3.8-2.2c-1.2-2.1-0.4-4.7,1.7-5.8l31-17.2c2.1-1.2,4.7-0.4,5.8,1.7
	c1.2,2.1,0.4,4.7-1.7,5.8l-31,17.2C274.9,76.6,274.2,76.7,273.5,76.7z"/>
<g>
	<defs>
		<rect id="SVGID_00000178193508608099320330000012230687372076472989_" x="-11.4" y="-2.9" width="623.6" height="113.4"/>
	</defs>
	<clipPath id="SVGID_00000148625801548814630630000017667928373044123557_">
		<use xlink:href="#SVGID_00000178193508608099320330000012230687372076472989_"  style="overflow:visible;"/>
	</clipPath>
	<path style="clip-path:url(#SVGID_00000148625801548814630630000017667928373044123557_);fill:#009AB2;" d="M543.3,87.1
		c-1.8,0-3.7-0.2-5.5-0.7c-5.9-1.5-10.9-5.1-14-10.4c-6.5-10.8-3-24.8,7.8-31.2c10.8-6.5,24.8-3,31.2,7.8c1.3,2.1,0.6,4.9-1.5,6.2
		c-2.1,1.3-4.9,0.6-6.2-1.5c-3.9-6.5-12.4-8.6-18.9-4.7c-6.5,3.9-8.6,12.4-4.7,18.9c1.9,3.1,4.9,5.4,8.5,6.3s7.3,0.3,10.4-1.6
		c1.9-1.1,3.4-2.6,4.6-4.5c1.3-2.1,4.1-2.8,6.2-1.4c2.1,1.3,2.8,4.1,1.4,6.2c-1.9,3-4.5,5.6-7.6,7.5C551.4,86,547.4,87.1,543.3,87.1
		z"/>
</g>
<path class="st1" d="M527.8,76.7c-1.5,0-3-0.8-3.8-2.2c-1.2-2.1-0.4-4.7,1.7-5.8l31-17.2c2.1-1.2,4.7-0.4,5.8,1.7
	c1.2,2.1,0.4,4.7-1.7,5.8l-31,17.2C529.2,76.5,528.5,76.7,527.8,76.7z"/>
<path class="st1" d="M139.8,86.7c-2,0-3.9-1.3-4.6-3.4l-17-54c-0.8-2.5,0.6-5.2,3.1-6c2.5-0.8,5.2,0.6,6,3.1l17,54
	c0.8,2.5-0.6,5.2-3.1,6C140.7,86.7,140.3,86.7,139.8,86.7z"/>
<path class="st1" d="M173.8,86.7c-2,0-3.9-1.3-4.6-3.4l-17-54c-0.8-2.5,0.6-5.2,3.1-6c2.5-0.8,5.2,0.6,6,3.1l17,54
	c0.8,2.5-0.6,5.2-3.1,6C174.7,86.7,174.2,86.7,173.8,86.7z"/>
<path class="st1" d="M139.8,86.7c-0.5,0-1-0.1-1.4-0.2c-2.5-0.8-3.9-3.5-3.1-6l17-54c0.8-2.5,3.5-3.9,6-3.1c2.5,0.8,3.9,3.5,3.1,6
	l-17,54C143.7,85.4,141.8,86.7,139.8,86.7z"/>
<path class="st1" d="M173.8,86.7c-0.5,0-1-0.1-1.4-0.2c-2.5-0.8-3.9-3.5-3.1-6l17-54c0.8-2.5,3.5-3.9,6-3.1c2.5,0.8,3.9,3.5,3.1,6
	l-17,54C177.7,85.4,175.8,86.7,173.8,86.7z"/>
<g>
	<defs>
		<rect id="SVGID_00000018954829302200950740000007207937109293031075_" x="-11.4" y="-2.9" width="623.6" height="113.4"/>
	</defs>
	<clipPath id="SVGID_00000175291526304396701230000001153869129578242202_">
		<use xlink:href="#SVGID_00000018954829302200950740000007207937109293031075_"  style="overflow:visible;"/>
	</clipPath>
	<path style="clip-path:url(#SVGID_00000175291526304396701230000001153869129578242202_);fill:#009AB2;" d="M379.7,87.4
		c-17.8,0-32.3-14.5-32.3-32.3c0-17.8,14.5-32.3,32.3-32.3c8.7,0,16.8,3.4,22.9,9.5c1.8,1.8,1.8,4.8,0,6.6c-1.8,1.8-4.8,1.8-6.6,0
		c-4.3-4.4-10.1-6.8-16.2-6.8c-12.6,0-22.9,10.3-22.9,22.9S367.1,78,379.7,78c6,0,11.6-2.3,15.9-6.4c1.9-1.8,4.8-1.7,6.6,0.1
		c1.8,1.9,1.7,4.8-0.1,6.6C396,84.2,388.1,87.4,379.7,87.4z"/>
	<path style="clip-path:url(#SVGID_00000175291526304396701230000001153869129578242202_);fill:#009AB2;" d="M478.1,87.1
		c-12.6,0-22.8-10.2-22.8-22.7c0-12.5,10.2-22.7,22.8-22.7c6.1,0,11.9,2.4,16.2,6.7c1.8,1.8,1.7,4.6,0,6.4c-1.8,1.8-4.6,1.7-6.4,0
		c-2.6-2.6-6.1-4.1-9.8-4.1c-7.6,0-13.8,6.2-13.8,13.7s6.2,13.7,13.8,13.7c3.6,0,7-1.4,9.6-3.8c1.8-1.7,4.6-1.7,6.4,0.1
		c1.7,1.8,1.7,4.6-0.1,6.4C489.6,84.8,484,87.1,478.1,87.1z"/>
	<path style="clip-path:url(#SVGID_00000175291526304396701230000001153869129578242202_);fill:#009AB2;" d="M587.3,86.8
		c-2.5,0-4.5-2-4.5-4.5s2-4.5,4.5-4.5c2.6,0,4.8-2.1,4.8-4.6s-2.2-4.6-4.8-4.6c-2.5,0-4.5-2-4.5-4.5s2-4.5,4.5-4.5
		c7.6,0,13.8,6.1,13.8,13.6C601.1,80.7,594.9,86.8,587.3,86.8z"/>
	<path style="clip-path:url(#SVGID_00000175291526304396701230000001153869129578242202_);fill:#009AB2;" d="M581.5,68.5
		c-7.4,0-13.5-6-13.5-13.4s6.1-13.4,13.5-13.4c2.5,0,4.5,2,4.5,4.5s-2,4.5-4.5,4.5c-2.5,0-4.5,2-4.5,4.4c0,2.4,2,4.4,4.5,4.4
		c2.5,0,4.5,2,4.5,4.5S584,68.5,581.5,68.5z"/>
</g>
<path class="st1" d="M593.9,50.8h-12.4c-2.5,0-4.5-2-4.5-4.5s2-4.5,4.5-4.5h12.4c2.5,0,4.5,2,4.5,4.5S596.4,50.8,593.9,50.8z"/>
<path class="st1" d="M587.2,68.5h-5.5c-2.5,0-4.5-2-4.5-4.5s2-4.5,4.5-4.5h5.5c2.5,0,4.5,2,4.5,4.5S589.7,68.5,587.2,68.5z"/>
<path class="st1" d="M587.4,86.8h-13.9c-2.5,0-4.5-2-4.5-4.5s2-4.5,4.5-4.5h13.9c2.5,0,4.5,2,4.5,4.5S589.9,86.8,587.4,86.8z"/>
<path class="st1" d="M506.1,77.3c-2.5,0-4.5-2-4.5-4.5V29.9c0-2.5,2-4.5,4.5-4.5s4.5,2,4.5,4.5v42.9
	C510.6,75.3,508.6,77.3,506.1,77.3z"/>
<g>
	<defs>
		<rect id="SVGID_00000153702182226697248460000012431598731789488798_" x="-11.4" y="-2.9" width="623.6" height="113.4"/>
	</defs>
	<clipPath id="SVGID_00000155126209338495741200000008668076210062848668_">
		<use xlink:href="#SVGID_00000153702182226697248460000012431598731789488798_"  style="overflow:visible;"/>
	</clipPath>
	<path style="clip-path:url(#SVGID_00000155126209338495741200000008668076210062848668_);fill:#009AB2;" d="M516,87.1
		c-7.9,0-14.4-6.4-14.4-14.4c0-2.5,2-4.5,4.5-4.5s4.5,2,4.5,4.5c0,3,2.4,5.4,5.4,5.4c2.5,0,4.5,2,4.5,4.5S518.5,87.1,516,87.1z"/>
</g>
<path class="st1" d="M249.5,76.3c-2.5,0-4.5-2-4.5-4.5V31.9c0-2.5,2-4.5,4.5-4.5s4.5,2,4.5,4.5v39.9C254,74.3,252,76.3,249.5,76.3z"
	/>
<g>
	<defs>
		<rect id="SVGID_00000049908676777421554280000005095738353140868480_" x="-11.4" y="-2.9" width="623.6" height="113.4"/>
	</defs>
	<clipPath id="SVGID_00000062162070925199524860000012775688744290552465_">
		<use xlink:href="#SVGID_00000049908676777421554280000005095738353140868480_"  style="overflow:visible;"/>
	</clipPath>
	<path style="clip-path:url(#SVGID_00000062162070925199524860000012775688744290552465_);fill:#009AB2;" d="M259.4,87.1
		c-7.9,0-14.4-6.4-14.4-14.4c0-2.5,2-4.5,4.5-4.5s4.5,2,4.5,4.5c0,3,2.4,5.4,5.4,5.4c2.5,0,4.5,2,4.5,4.5S261.9,87.1,259.4,87.1z"/>
</g>
<path class="st1" d="M259.5,50.8h-9.1c-2.5,0-4.5-2-4.5-4.5s2-4.5,4.5-4.5h9.1c2.5,0,4.5,2,4.5,4.5S261.9,50.8,259.5,50.8z"/>
<path class="st1" d="M415.7,86.8c-2.5,0-4.5-2-4.5-4.5V46.4c0-2.5,2-4.5,4.5-4.5s4.5,2,4.5,4.5v35.9
	C420.2,84.8,418.2,86.8,415.7,86.8z"/>
<g>
	<defs>
		<rect id="SVGID_00000060015937095418518900000012114527375044723126_" x="-11.4" y="-2.9" width="623.6" height="113.4"/>
	</defs>
	<clipPath id="SVGID_00000101075617355692397730000000574359193542620596_">
		<use xlink:href="#SVGID_00000060015937095418518900000012114527375044723126_"  style="overflow:visible;"/>
	</clipPath>
	<path style="clip-path:url(#SVGID_00000101075617355692397730000000574359193542620596_);fill:#009AB2;" d="M415.7,35.6
		c2.9,0,5.2-2.3,5.2-5.2c0-2.9-2.3-5.2-5.2-5.2c-2.9,0-5.2,2.3-5.2,5.2C410.5,33.3,412.9,35.6,415.7,35.6"/>
</g>
</svg>
